<svg width="24" height="24" viewBox="0 0 24 24" fill="none" xmlns="http://www.w3.org/2000/svg">
<path d="M11.5417 2.02372C10.8579 2.13313 10.2639 2.33633 9.80672 2.60986C9.09944 3.03188 8.45468 3.67274 8.03266 4.36829C7.81383 4.7278 7.61845 5.22797 7.50903 5.68907C7.39571 6.17753 7.36836 7.15444 7.45433 7.6468C7.70442 9.08481 8.568 10.304 9.86924 11.0503C11.1509 11.785 12.8586 11.8475 14.2614 11.2145C14.7303 11.0035 15.1719 10.6791 15.6291 10.2258C16.6529 9.20204 17.1023 8.03756 17.0398 6.59955C16.9811 5.32176 16.5474 4.3175 15.6565 3.41483C14.9453 2.69192 14.0582 2.22691 13.0774 2.05498C12.7687 2.00027 11.7996 1.98073 11.5417 2.02372Z" fill="#1F1729"/>
<path d="M7.86856 11.6714C7.37619 11.7456 7.04795 11.8433 6.64938 12.0426C5.88739 12.4177 5.31296 13.039 4.85968 13.973C4.28916 15.1492 4 16.5911 4 18.2948C4 19.3264 4.07425 19.6937 4.40249 20.3424C4.52362 20.5808 4.64867 20.741 4.91829 21.0106C5.30124 21.3975 5.63339 21.6163 6.0984 21.7804C6.74316 22.0149 6.52824 22.0071 12.503 21.9953L17.9698 21.9836L18.3019 21.882C18.724 21.7492 18.9467 21.6515 19.228 21.4717C19.8806 21.0575 20.3613 20.401 20.5684 19.6586C20.6934 19.1936 20.7286 18.6387 20.6856 17.7829C20.4902 13.9534 19.0366 11.7964 16.563 11.6596C16.0316 11.6323 16.0238 11.6323 15.1133 12.2184C14.4099 12.6678 13.9215 12.8906 13.2728 13.0586C12.7844 13.1875 11.909 13.1875 11.4245 13.0625C10.7329 12.8827 10.2678 12.6678 9.56447 12.2106C9.30657 12.0426 8.99005 11.8472 8.85328 11.7769C8.62664 11.6596 8.57584 11.6479 8.28667 11.6518C8.11083 11.6557 7.92326 11.6636 7.86856 11.6714Z" fill="#1F1729"/>
</svg>
