<svg width="390" height="390" viewBox="0 0 390 390" fill="none" xmlns="http://www.w3.org/2000/svg">
<path d="M309.699 249.247C315.244 256.582 319.314 264.802 323.277 273.085C323.881 274.29 324.377 275.549 324.759 276.847C324.87 277.192 324.891 277.561 324.82 277.917C324.749 278.273 324.588 278.604 324.354 278.876C323.852 279.541 323.206 280.078 322.468 280.444C320.384 281.527 318.245 282.494 316.061 283.343C311.626 285.052 307.603 287.725 304.27 291.179C301.895 293.617 299.596 296.116 297.305 298.632C294.067 302.182 290.432 305.097 285.712 306.343C282.094 307.218 278.342 307.34 274.677 306.703C269.087 305.92 263.688 304.18 258.182 302.989C256.376 302.471 254.536 302.088 252.676 301.845C251.645 302.111 250.69 301.657 249.705 301.531C247.33 301.241 244.993 300.395 242.557 301.014C242.144 300.85 241.701 300.778 241.259 300.804C240.816 300.829 240.384 300.952 239.991 301.163C238.693 301.389 237.416 301.727 236.173 302.174C231.326 303.887 226.184 304.543 221.075 304.102C220.363 303.924 219.632 303.832 218.899 303.827C217.932 303.797 216.977 303.601 216.073 303.247C209.582 300.951 203.091 301.304 196.577 303.146C190.696 304.807 184.877 306.688 178.921 308.059C170.447 310.076 161.574 309.379 153.498 306.061C146.875 303.53 140.505 300.352 134.475 296.571C133.722 296.137 133.007 295.639 132.337 295.082C130.97 293.789 129.923 292.48 130.183 290.239C130.771 285.138 132.108 280.224 133.306 275.272C134.914 268.524 137.276 261.989 140.348 255.798C145.174 246.191 150.627 236.991 157.393 228.622C163.25 221.389 169.81 214.869 176.423 208.38C183.037 201.892 190.307 196.493 196.714 189.918C199.12 187.457 201.686 185.161 203.877 182.473C204.148 182.027 204.553 181.683 205.031 181.494C208.444 182.403 211.827 181.862 215.065 180.82C221.327 178.798 227.345 176.118 232.63 172.067C235.387 169.928 237.72 167.268 239.503 164.23C239.804 163.52 240.06 162.789 240.266 162.044C241.167 161.707 241.076 162.553 241.221 162.969C242.214 165.766 243.375 168.454 244.581 171.189C248.033 178.884 252.836 185.663 258.06 192.159C264.694 200.399 271.82 208.209 279.397 215.543C283.124 219.163 286.835 222.815 290.363 226.623C296.694 233.457 303.17 240.165 308.814 247.641C309.255 248.076 309.562 248.635 309.699 249.247V249.247Z" fill="#B60000"/>
<path opacity="0.3" d="M205.076 181.611C202.761 184.524 200.206 187.227 197.44 189.691C197.285 189.826 197.137 189.97 196.997 190.122C193.913 193.296 190.66 196.291 187.252 199.094C184.136 201.774 181.143 204.58 178.088 207.315C173.109 211.781 168.481 216.624 163.945 221.545C157.21 228.789 151.316 236.81 146.38 245.446C143.441 250.438 140.791 255.603 138.446 260.915C136.065 266.727 134.17 272.736 132.779 278.876C132.069 281.854 131.504 284.871 130.802 287.857C130.511 289.087 130.802 290.349 130.412 291.571C130.259 292.065 130.656 292.543 130.962 292.974C131.809 294.151 132.882 295.138 134.116 295.873C136.346 297.211 138.583 298.546 140.829 299.878C144.586 302.088 148.664 303.561 152.658 305.238C156.346 306.861 160.229 307.968 164.205 308.529C167.334 308.92 170.499 308.92 173.628 308.529C180.104 307.745 186.298 305.677 192.529 303.827C196.198 302.614 199.973 301.766 203.801 301.296C207.662 300.926 211.555 301.347 215.256 302.534C216.401 302.966 217.589 303.263 218.799 303.42C219.197 304 218.845 304.525 218.662 305.042C215.785 313.071 213.77 321.398 212.652 329.875C212.102 334.107 211.888 338.37 211.56 342.617C211.094 348.369 211.056 354.145 210.659 359.904C210.605 360.688 210.529 361.432 209.483 361.581C206.512 362.012 205.13 364.152 204.282 366.824C204.068 367.513 204.099 368.289 203.518 368.83C201.11 369.626 198.653 370.26 196.164 370.726C192.769 371.311 189.335 371.631 185.893 371.682C178.256 371.761 171.07 369.739 164.182 366.479C159.684 364.347 155.72 361.37 151.833 358.259C148.697 355.688 145.773 352.857 143.089 349.795C140.043 346.377 137.395 342.606 135.2 338.558C132.383 333.561 130.08 328.277 128.327 322.791C127.296 319.313 126.515 315.761 125.99 312.165C124.929 305.253 124.814 298.303 124.814 291.336C124.814 287.637 124.975 283.931 124.685 280.24C124.532 278.367 124.685 276.486 124.478 274.629C124.058 270.601 124.15 266.55 123.669 262.514C123.188 258.478 122.623 254.286 121.767 250.227C121.4 248.393 120.912 246.586 120.309 244.819C120.214 244.36 119.998 243.937 119.683 243.597C119.125 243.009 119.385 242.32 119.484 241.669C121.011 231.889 122.218 222.078 123.631 212.275C124.211 208.255 124.631 204.219 124.975 200.168C124.991 199.548 125.181 198.946 125.523 198.435C125.864 197.923 126.342 197.524 126.899 197.284C129.219 196.087 131.338 194.518 133.177 192.637C135.163 190.592 136.472 187.957 136.919 185.106C137.682 180.6 137.499 176.071 137.163 171.565C136.804 166.863 136.544 162.216 136.094 157.554C135.407 150.336 134.215 143.205 133.169 136.043C132.008 128.097 130.366 120.253 128.587 112.44C128.175 111.155 127.839 109.847 127.579 108.522C127.591 108.235 127.666 107.956 127.798 107.703C127.931 107.451 128.117 107.232 128.343 107.064C133.497 102.629 138.27 97.7623 143.425 93.3113C144.189 92.6373 144.868 91.8537 145.594 91.1327C146.003 90.5962 146.571 90.2111 147.213 90.0357C151.13 88.1765 154.937 86.0832 158.614 83.7666C163.714 80.5234 169.032 77.6585 174.529 75.1936C181.455 72.3084 188.758 70.489 196.202 69.7943C199.525 69.3862 202.868 69.1847 206.214 69.1909C209.811 69.285 213.408 69.5671 216.997 69.8414C217.548 69.867 218.079 70.0578 218.525 70.3899C218.807 70.7648 219.009 71.1964 219.119 71.6568C219.228 72.1172 219.241 72.596 219.158 73.0621C218.876 75.1858 218.937 77.3251 218.861 79.4566C218.769 81.8702 218.334 82.2071 215.982 81.9564C213.594 81.7176 211.185 82.0227 208.925 82.8497C203.585 84.7682 198.692 87.8081 194.561 91.7753C189.146 96.8925 187.084 103.655 185.954 110.833C185.648 113.472 185.543 116.132 185.641 118.787C185.641 126.624 184.289 134.107 180.883 141.184C178.737 145.642 177.79 150.336 179.356 155.289C180.486 158.917 182.724 161.801 185.183 164.536C185.878 165.32 186.573 166.048 187.245 166.832C188.596 168.399 189.2 170.029 188.489 172.137C188.039 173.454 188.627 174.088 190.07 174.002C192.43 173.861 194.446 172.717 196.348 171.393C197.997 170.249 198.249 170.225 199.349 171.918C201.067 174.559 202.831 177.176 204.572 179.809C204.878 180.318 205.466 180.828 205.076 181.611V181.611ZM309.699 249.247C304.262 242.288 298.405 235.729 292.372 229.311C288.553 225.26 284.735 221.209 280.779 217.33C276.823 213.451 272.929 209.603 269.202 205.575C262.176 197.903 255.326 190.067 249.659 181.282C246.079 175.583 243.138 169.487 240.892 163.11C240.77 162.781 240.892 162.373 240.549 162.107C239.785 161.323 239.862 160.265 239.785 159.325C239.533 154.827 238.556 150.454 237.792 146.003C237.233 143.103 235.65 140.516 233.347 138.739C230.568 136.388 227.62 134.248 224.947 131.686C224.634 131.421 224.341 131.133 224.069 130.824C223.305 129.876 223.443 129.539 224.642 129.257C225.499 129.136 226.327 128.855 227.085 128.426C227.566 128.113 228.101 127.783 228.2 127.196C228.529 125.299 229.628 123.795 230.491 122.165C230.59 121.984 230.66 121.788 230.697 121.585C231.095 119.563 231.095 119.563 233.141 119.524C233.752 119.525 234.361 119.46 234.959 119.328C236.142 119.038 236.738 118.286 236.486 117.055C236.142 115.192 236.517 113.265 237.532 111.68C238.526 110.089 239.056 108.24 239.06 106.351C239.052 105.613 239.326 104.901 239.823 104.368C241.351 102.644 241.641 100.576 241.389 98.3735C240.854 93.7971 239.098 89.8398 235.532 86.9246C234.241 85.8824 233.683 84.6991 234.249 83.0064C235.012 80.7417 234.707 78.3595 234.753 76.0164C234.753 75.3111 234.569 74.5353 235.196 73.9633C243.122 76.1134 250.788 79.1677 258.052 83.0691C262.165 85.3064 266.009 88.0284 269.507 91.1798C271.29 92.7167 272.934 94.4163 274.418 96.2577C274.476 96.3603 274.564 96.4421 274.669 96.4925C274.774 96.5429 274.891 96.5594 275.006 96.5398C275.052 95.9129 275.097 95.2703 275.143 94.6199C275.998 94.9099 275.769 95.6857 275.808 96.3048C275.86 98.6847 275.694 101.064 275.311 103.412C275.13 104.014 275.101 104.653 275.227 105.27C275.991 104.65 275.93 103.796 276.144 103.068C276.503 101.845 276.189 100.466 276.968 99.3453C278.137 101.336 279.611 103.138 280.359 105.371C280.489 105.748 280.756 105.795 281.085 105.63C281.526 105.809 281.897 106.135 282.138 106.555C281.772 106.86 281.146 106.923 281.65 107.762C283.65 111.037 284.903 114.689 286.354 118.231C289.157 125.08 291.822 131.999 295.426 138.457C297.083 141.427 298.603 144.514 300.848 147.077C301.856 148.236 302.842 149.427 303.941 150.509C306.858 153.385 309.844 156.206 312.846 158.996C315.795 161.753 318.57 164.7 321.154 167.819C322.934 169.951 324.667 172.114 326.294 174.371C327.107 175.565 327.854 176.805 328.531 178.085C331.016 182.445 332.629 187.27 333.274 192.277C333.702 195.417 333.868 198.589 333.77 201.759C333.627 205.495 333.055 209.201 332.067 212.8C330.828 217.402 329.142 221.865 327.035 226.122C324.613 230.991 321.713 235.593 318.382 239.859C316.071 242.893 313.46 245.674 310.593 248.158C310.218 248.446 309.912 248.818 309.699 249.247V249.247Z" fill="#B60000"/>
<path d="M235.295 73.9711C235.295 74.9037 235.333 75.844 235.364 76.7765C235.465 79.2832 235.179 81.7906 234.516 84.2054C234.383 84.4773 234.356 84.7911 234.441 85.0826C234.526 85.374 234.717 85.6209 234.974 85.7727C235.432 86.094 235.814 86.5563 236.242 86.9011C240.182 90.3413 241.893 94.808 241.931 100.019C241.995 100.882 241.864 101.748 241.551 102.551C241.237 103.354 240.748 104.072 240.121 104.65C239.947 104.798 239.81 104.987 239.725 105.202C239.64 105.417 239.608 105.65 239.632 105.881C239.601 108.137 238.947 110.338 237.746 112.228C237.289 112.915 236.984 113.696 236.852 114.516C236.721 115.336 236.765 116.176 236.983 116.977C237.418 118.544 236.708 119.469 235.127 119.751C234.524 119.831 233.917 119.876 233.309 119.884C232.568 119.849 231.826 119.915 231.102 120.08C231.035 120.199 231 120.335 231 120.472C231 120.61 231.035 120.745 231.102 120.864C231.227 121.149 231.277 121.462 231.247 121.773C231.209 122.619 230.11 122.745 230.064 123.434C230.018 124.124 230.01 124.813 229.3 125.135C229.203 125.163 229.113 125.213 229.036 125.279C228.959 125.346 228.896 125.429 228.852 125.522C228.808 125.615 228.784 125.716 228.781 125.82C228.778 125.923 228.796 126.026 228.834 126.122C229.124 127.29 228.513 127.995 227.673 128.598C226.665 129.327 225.993 129.539 223.954 129.758C223.863 130.228 224.26 130.377 224.504 130.605C226.899 132.942 229.451 135.105 232.141 137.077C233.167 137.846 234.121 138.712 234.989 139.663C236.734 141.504 237.896 143.842 238.327 146.371C239.327 151.531 240.059 156.742 240.518 161.981C240.552 162.756 240.352 163.522 239.946 164.175C237.41 168.736 233.714 172.012 229.392 174.708C224.935 177.396 220.195 179.557 215.264 181.149C212.65 182.007 209.911 182.389 207.169 182.277C206.405 182.315 205.654 182.061 205.061 181.564C204.696 180.717 204.218 179.926 203.641 179.213C201.77 176.361 199.876 173.532 197.913 170.593C196.872 171.624 195.672 172.471 194.362 173.101C192.965 173.851 191.445 174.331 189.879 174.519C188.199 174.637 187.374 173.736 188.001 172.169C188.81 170.162 188.222 168.658 186.954 167.177C185.481 165.453 183.9 163.854 182.487 162.044C180.563 159.672 179.201 156.874 178.508 153.871C177.838 150.312 178.216 146.629 179.593 143.292C180.135 141.834 180.73 140.392 181.38 138.982C183.896 133.205 185.17 126.94 185.114 120.613C185.054 117.474 185.179 114.333 185.488 111.21C186.038 106.651 187.329 102.22 189.307 98.0993C190.48 95.7786 192.029 93.6798 193.889 91.8929C197.912 87.8884 202.698 84.7803 207.948 82.7635C211.1 81.413 214.585 81.1088 217.914 81.8937C218.056 81.7269 218.162 81.531 218.226 81.3189C218.289 81.1068 218.307 80.8834 218.28 80.6634C218.644 77.299 218.711 73.9077 218.479 70.531C217.937 69.9746 218.074 69.2615 218.082 68.6032C218.108 62.3488 217.589 56.1044 216.531 49.9448C216.139 47.4162 215.366 44.9656 214.24 42.6805C213.92 41.9384 213.437 41.2822 212.829 40.763C212.221 40.2438 211.505 39.8756 210.735 39.687C210.381 39.6359 210.038 39.5247 209.719 39.3579C209.272 39.0204 208.72 38.8614 208.166 38.9104C207.613 38.9594 207.095 39.2131 206.711 39.6244C205.42 40.7528 204.022 40.0867 202.74 39.3579C201.457 38.6291 201.373 38.5743 200.762 40.071C200.498 40.8222 199.993 41.4585 199.329 41.8746C198.665 42.2907 197.883 42.4617 197.111 42.3592C194.133 42.0066 192.285 43.3701 190.368 45.4938C187.26 48.9888 183.396 51.7629 180.196 55.1404C174.087 61.6445 168.046 68.1644 162.143 74.841C160.913 76.2358 159.577 77.521 158.279 78.8375C157.983 79.0846 157.753 79.4049 157.612 79.7683C157.47 80.1316 157.421 80.5259 157.469 80.9141C157.558 81.3801 157.501 81.8631 157.306 82.2938C157.112 82.7246 156.789 83.081 156.385 83.3121C155.785 83.7988 155.293 84.4105 154.941 85.1066C153.796 86.7522 152.65 86.8698 151.123 85.5141C148.512 82.1397 146.095 78.6127 143.883 74.9507C143.303 73.9398 142.356 72.9446 142.845 71.5575L142.952 71.393V71.3381C143.173 70.2802 143.998 69.7081 144.716 69.0577C145.114 68.7359 145.494 68.3905 145.854 68.0233C145.978 67.8413 146.137 67.687 146.321 67.5697C146.505 67.4524 146.71 67.3745 146.924 67.3408C147.138 67.3071 147.357 67.3183 147.566 67.3737C147.776 67.429 147.973 67.5274 148.145 67.6629C148.908 68.1801 149.267 67.8823 149.794 67.3494C155.581 61.4136 161.655 55.78 167.992 50.4699C173.338 45.9796 178.837 41.6775 184.236 37.2499C186.573 35.33 188.818 33.3318 191.109 31.3335C193.292 29.3751 195.719 27.7229 198.325 26.4201C200.06 25.5065 202.055 25.2539 203.954 25.707C204.811 25.8569 205.613 26.2431 206.273 26.8241C206.934 27.4051 207.428 28.1593 207.703 29.0061C208.123 30.4088 209.025 30.5734 210.124 30.5734C212.908 30.5176 215.634 29.7529 218.059 28.3478L218.318 28.1911C221.854 25.9029 225.81 27.8306 226.436 32.1093C226.604 33.0907 226.568 34.0976 226.329 35.0636C225.566 37.8847 225.894 40.6274 226.612 43.3858C227.33 46.1442 228.361 49.0437 229.308 51.8491C231.517 58.1719 233.346 64.6282 234.783 71.1814C234.966 72.1296 235.127 73.0543 235.295 73.9711ZM127.816 108.106C130.346 117.389 132.297 126.827 133.658 136.364C134.421 141.615 135.33 146.857 135.949 152.139C136.552 157.264 136.995 162.404 137.308 167.553C137.499 170.57 137.682 173.587 137.804 176.612C137.99 179.895 137.749 183.189 137.087 186.407C136.504 189.013 135.174 191.379 133.268 193.201C131.236 195.181 128.918 196.825 126.395 198.076C126.113 198.174 125.869 198.361 125.696 198.61C125.524 198.859 125.431 199.157 125.433 199.463C125.135 204.407 124.463 209.313 123.822 214.218C122.997 220.488 122.08 226.812 121.187 233.104C120.736 236.239 120.232 239.373 119.759 242.508C119.705 242.868 119.698 243.229 119.675 243.589C119.018 246.324 118.697 249.122 118.232 251.896C117.086 258.721 115.673 265.5 114.665 272.356C113.627 279.409 112.527 286.462 111.412 293.515C109.747 304.008 108.678 314.587 107.105 325.095C105.799 333.652 104.272 342.147 102.172 350.54C101.553 353.024 101.515 355.594 101.164 358.125C100.94 359.881 100.593 361.617 100.125 363.321C100.052 363.456 100.007 363.604 99.9918 363.758C99.9769 363.911 99.9929 364.066 100.039 364.213C100.085 364.36 100.159 364.496 100.258 364.612C100.357 364.728 100.478 364.822 100.614 364.888C101.836 365.737 102.986 366.692 104.05 367.741C108.533 371.996 113.688 374.793 119.866 375.373C120.675 375.464 121.465 375.681 122.21 376.016C122.991 376.313 123.685 376.809 124.229 377.455C124.773 378.102 125.149 378.879 125.322 379.715C125.495 380.551 125.459 381.418 125.218 382.236C124.977 383.053 124.539 383.796 123.944 384.393C122.157 386.18 119.897 387.388 117.445 387.864C115.045 388.342 112.586 388.429 110.16 388.123C103.218 387.543 96.3447 386.47 89.4641 385.404C88.1585 385.19 86.8786 384.836 85.6457 384.346C84.1364 383.828 82.8642 382.76 82.0693 381.346C81.2744 379.931 81.0118 378.266 81.331 376.666C81.6353 374.815 82.1478 373.005 82.8583 371.275C83.2554 370.264 83.6754 369.253 84.126 368.266C84.1742 368.191 84.207 368.107 84.2223 368.018C84.2376 367.93 84.2352 367.839 84.2152 367.752C84.1952 367.665 84.158 367.583 84.1059 367.51C84.0537 367.438 83.9878 367.378 83.9122 367.333C81.4684 365.413 80.4222 362.631 79.6814 359.755C78.7227 355.486 78.1879 351.127 78.0854 346.747C77.5126 335.854 77.4515 324.962 77.6195 314.054C77.7341 306.288 78.2305 298.53 78.7039 290.78C79.1087 284.119 79.3225 277.458 79.7196 270.781C80.4833 257.46 80.3916 244.099 80.7124 230.753C80.7272 225.171 81.1176 219.597 81.8808 214.07C81.9763 213.726 81.9763 213.363 81.8808 213.02C81.1326 210.636 80.6885 208.162 80.5597 205.661C80.5062 202.699 80.0327 199.753 80.216 196.79C80.2663 195.987 80.1463 195.183 79.8641 194.432C79.582 193.681 79.1445 193.002 78.5817 192.441C75.0918 188.523 71.6247 184.605 68.8067 180.068C67.8558 178.577 67.2648 176.876 67.0828 175.104C66.9009 173.332 67.1332 171.541 67.7605 169.88C68.8736 166.743 70.2482 163.709 71.8691 160.814C75.0459 154.748 77.8792 148.503 80.972 142.39C82.4154 139.538 82.2168 136.474 81.919 133.504C81.5448 129.727 82.1175 126.012 82.1786 122.274C82.2505 120.189 82.4906 118.113 82.8965 116.068C82.9026 115.545 83.0652 115.036 83.3623 114.61C83.7365 112.777 84.126 110.951 84.4849 109.125C85.8137 102.339 89.2731 96.8063 94.0308 92.0339C94.1759 91.8929 94.2981 91.744 94.4661 91.5481C93.7635 90.5685 93.0533 89.6203 92.3813 88.6486C88.9982 83.7196 88.9982 76.3691 92.3966 71.8161C93.5277 70.2668 94.951 68.9668 96.5817 67.9935C98.2125 67.0202 100.017 66.3934 101.889 66.1504C105.165 65.6881 108.457 65.3668 111.725 64.928C114.706 64.609 117.578 63.6016 120.125 61.9815C123.234 59.9127 127.266 62.4125 127.541 66.3934C127.629 67.4905 127.468 68.5938 127.071 69.6164C126.673 70.6389 126.05 71.5529 125.25 72.2863C124.757 72.6571 124.409 73.1963 124.269 73.8069C124.129 74.4175 124.206 75.0593 124.486 75.6168C125.201 77.7954 125.557 80.0809 125.54 82.3795C125.387 82.9066 125.04 83.3515 124.572 83.6194C124.104 83.8873 123.552 83.957 123.035 83.8136C122.592 83.3748 122.791 82.8497 122.837 82.3482C122.914 80.4796 122.706 78.61 122.218 76.8079C122.05 76.0242 121.676 75.75 120.912 76.1183C119.385 76.9019 117.689 77.3564 116.093 78.0068C115.225 78.2977 114.449 78.823 113.847 79.5276C113.246 80.2322 112.839 81.0901 112.672 82.0112C112.362 83.4386 111.911 84.8301 111.328 86.1645C111.23 86.3145 111.167 86.485 111.143 86.6636C111.118 86.8421 111.133 87.024 111.187 87.1957C111.241 87.3674 111.331 87.5245 111.452 87.6553C111.573 87.7861 111.721 87.8873 111.885 87.9512C112.636 88.2681 113.322 88.7251 113.909 89.299C113.382 90.7723 112.642 91.1563 111.038 90.7958C110.347 90.3544 109.577 90.0578 108.774 89.9233C107.97 89.7888 107.149 89.819 106.356 90.0122C104.707 90.3413 103.08 90.7409 101.461 91.1954C98.1635 92.1801 95.2664 94.2372 93.2061 97.057C90.0182 101.015 87.8493 105.73 86.8981 110.771C85.7522 116.861 85.1109 123.04 84.9813 129.241C84.8973 136.599 85.1951 143.942 85.409 151.285C85.6228 158.627 85.1035 165.954 84.7522 173.281C84.4238 180.146 83.7365 186.987 83.4158 193.852C83.1052 198.479 83.1307 203.123 83.4922 207.746C83.7976 210.802 83.7976 210.77 86.6767 209.869C94.5501 207.401 102.462 205.019 110.198 202.158C116.628 199.807 123.02 197.167 128.854 193.366C133.345 190.435 134.964 186.094 135.086 180.875C135.096 174.778 134.808 168.684 134.223 162.616C132.987 148.593 130.947 134.657 128.113 120.88C127.35 117.204 126.586 113.529 125.777 109.909C125.906 108.584 126.487 107.879 127.816 108.106V108.106Z" fill="black"/>
<path opacity="0.3" d="M83.3547 114.65C83.2464 116.571 83.0425 118.486 82.7438 120.386C82.2044 125.777 82.092 131.205 82.4078 136.615C82.5738 139.068 82.0432 141.518 80.8804 143.668C77.6883 149.819 74.8856 156.206 71.6247 162.303C70.2976 164.761 69.144 167.315 68.1729 169.943C67.4891 171.663 67.2507 173.536 67.4808 175.379C67.711 177.221 68.4019 178.972 69.4864 180.459C71.8798 183.934 74.484 187.25 77.2835 190.388C78.1999 191.43 79.0934 192.496 80.0251 193.523C80.2376 193.741 80.4015 194.004 80.5056 194.293C80.6098 194.583 80.6517 194.892 80.6284 195.2C80.4146 198.687 80.5062 202.174 80.5521 205.661C80.0557 204.878 80.2695 203.937 80.3 203.083C80.3447 202.678 80.2552 202.269 80.0461 201.922C79.837 201.575 79.5202 201.311 79.1469 201.171C73.3855 198.248 67.8348 194.906 62.537 191.172C59.4655 189.05 56.6079 186.619 54.0068 183.915C50.8605 180.514 48.3786 176.714 47.5156 171.98C46.8281 168.141 46.8281 164.206 47.5156 160.367C48.4966 155.421 50.3943 150.715 53.1057 146.504C55.3971 142.644 57.8797 138.906 60.5438 135.306C62.5829 132.595 64.6677 129.923 66.8747 127.345C68.0126 126.012 69.1657 124.719 70.3876 123.426C72.9759 120.778 75.9393 118.545 79.1774 116.805C80.5368 116.045 81.8121 115.065 83.3547 114.65V114.65Z" fill="#B60000"/>
<path d="M111.481 90.5999C112.573 90.7801 113.245 90.0278 113.978 89.4088C114.027 89.2056 114.122 89.0169 114.254 88.8578C114.387 88.6986 114.554 88.5734 114.742 88.4919C117.285 86.9246 119.896 85.3574 122.485 83.8528C122.665 83.7531 122.872 83.7172 123.073 83.7509C123.979 83.4953 124.813 83.0256 125.509 82.3795C128.289 80.6869 131.046 78.955 133.749 77.1292C136.677 75.095 139.722 73.2449 142.868 71.5889C143.326 73.8457 144.639 75.6481 145.876 77.4818C147.663 80.1305 149.534 82.7165 151.367 85.3182C150.451 87.1519 148.992 88.5232 147.641 90.02C147.529 90.1151 147.399 90.1846 147.259 90.2237H147.037C145.327 91.791 143.708 93.5463 141.951 95.1136C137.369 99.1964 133.009 103.561 128.335 107.542C128.15 107.721 127.977 107.912 127.816 108.114C127.052 108.396 126.212 108.639 126.029 109.681C125.402 110.904 124.165 111.398 123.165 112.158C120.895 113.907 118.471 115.437 115.925 116.726C113.635 117.871 111.101 118.41 108.556 118.294C104.218 118.106 101.591 115.222 99.5369 111.727C96.4287 106.429 97.8033 101.539 101.828 97.6213C104.787 94.9278 108.024 92.5734 111.481 90.5999V90.5999Z" fill="#B60000"/>
<path opacity="0.3" d="M242.344 300.818C242.454 300.649 242.605 300.511 242.781 300.416C242.957 300.322 243.153 300.274 243.352 300.277C246.5 300.41 249.621 300.936 252.645 301.845C252.012 303.882 250.988 305.763 250.171 307.714C247.567 313.983 245.589 320.519 243.504 326.976C241.549 333.122 238.812 338.977 235.364 344.388C232.578 348.744 229.303 352.747 225.604 356.315C224.886 357.04 224.121 357.713 223.313 358.329C222.777 358.714 222.305 359.185 221.915 359.724C221.427 359.301 221.625 358.76 221.717 358.266C223.374 349.788 225.046 341.301 228.208 333.245C230.316 327.877 233.241 322.909 236.074 317.909C238.693 313.438 240.504 308.519 241.419 303.388C241.565 302.448 241.511 301.461 242.344 300.818V300.818Z" fill="#B60000"/>
<path d="M242.344 300.818L241.244 306.155C240.376 310.019 238.925 313.721 236.944 317.126C235.333 320.017 233.79 322.94 232.164 325.824C228.986 331.574 226.637 337.766 225.192 344.208C224.015 349.215 222.778 354.199 221.892 359.27C221.877 359.423 221.877 359.578 221.892 359.732C221.282 362.827 220.648 365.923 220.174 369.136C220.495 369.026 220.64 368.994 220.77 368.932C223.321 367.67 225.459 368.148 227.269 370.358C227.984 371.24 228.523 372.257 228.857 373.351C229.386 375.094 229.679 376.903 229.728 378.727C229.764 380.76 229.585 382.791 229.193 384.785C228.834 386.807 227.788 388.209 225.711 388.609C224.947 388.766 224.13 389.001 223.328 389.095C221.813 389.337 220.261 389.138 218.852 388.518C217.442 387.899 216.23 386.885 215.355 385.592C214.35 384.092 213.449 382.52 212.66 380.89C212.326 380.139 211.894 379.438 211.377 378.806C211.146 379.53 211.061 380.295 211.125 381.055C211.134 383.398 210.955 385.739 210.59 388.052C210.552 388.256 210.552 388.476 210.506 388.672C210.3 389.455 209.742 390.019 209.177 389.965C208.868 389.94 208.578 389.801 208.362 389.573C208.145 389.345 208.017 389.044 208.001 388.726C207.864 387.857 207.765 386.979 207.642 386.101C207.199 382.912 206.741 379.715 206.306 376.517C206.222 375.639 205.962 374.788 205.542 374.018C204.549 372.439 203.871 370.672 203.549 368.822C203.717 367.043 203.992 365.296 205.138 363.854C206.42 362.247 207.849 360.86 210.224 361.15C210.346 358.227 210.445 355.328 210.582 352.436C210.98 343.949 211.392 335.47 212.637 327.062C213.859 318.983 215.922 311.062 218.792 303.435C219.514 303.354 220.245 303.462 220.915 303.749C220.999 304.05 221.023 304.365 220.986 304.676C220.949 304.987 220.852 305.287 220.701 305.559C217.489 314.905 215.384 324.614 214.431 334.475C213.973 339.804 213.568 345.148 213.355 350.516C213.194 354.434 213.133 358.353 213.133 362.224C213.067 363.321 213.226 364.421 213.601 365.451C213.976 366.481 214.558 367.419 215.31 368.203C215.783 368.665 216.279 369.308 216.974 369.151C217.784 368.963 217.608 368.062 217.738 367.435C219.403 357.898 221.19 348.385 223.771 339.044C225.413 333.12 228.086 327.705 230.98 322.368C233.027 318.591 235.318 314.947 237.013 310.974C238.037 308.255 238.849 305.456 239.442 302.605C239.602 301.962 239.594 301.241 240.205 300.779C240.702 300.066 241.42 300.191 242.115 300.293C242.336 300.324 242.26 300.638 242.344 300.818Z" fill="black"/>
<path d="M342.934 270.523C342.881 270.726 342.789 271.024 342.713 271.306C341.323 276.315 339.188 281.073 336.382 285.412C332.17 292.13 327.27 298.367 321.765 304.015C319.968 305.931 317.91 307.57 315.656 308.882C315.144 309.164 314.51 309.665 314.068 308.882C313.625 308.098 314.381 307.792 314.877 307.479C317.489 305.764 319.875 303.712 321.979 301.374C327.197 295.817 331.832 289.713 335.809 283.163C338.139 279.371 339.967 275.279 341.247 270.993C341.338 270.643 341.466 270.304 341.628 269.982C341.663 269.897 341.713 269.82 341.777 269.755C341.84 269.69 341.916 269.639 341.999 269.604C342.083 269.57 342.172 269.553 342.262 269.555C342.351 269.556 342.44 269.576 342.522 269.614C342.85 269.794 342.942 270.084 342.934 270.523V270.523Z" fill="black"/>
<path d="M239.938 41.9674C239.825 41.9589 239.715 41.9219 239.618 41.8597C239.522 41.7975 239.442 41.7119 239.386 41.6105C239.329 41.5091 239.298 41.395 239.294 41.2783C239.291 41.1615 239.315 41.0456 239.365 40.9409C239.682 40.2863 240.047 39.6576 240.457 39.0601C242.048 36.8697 242.898 34.2062 242.878 31.4745C242.914 30.2641 243.347 29.1016 244.108 28.1754C244.497 27.6347 244.917 27.1018 245.353 26.6082C246.441 25.4214 247.132 23.9084 247.323 22.2903C247.536 20.7351 248.093 19.2504 248.949 17.949C250.106 16.169 251.052 14.2539 251.767 12.2441C251.935 11.7269 252.187 11.2175 252.844 11.4605C253.501 11.7034 253.44 12.2441 253.302 12.7613C253.189 13.2167 253.041 13.6621 252.859 14.0935C252.283 15.484 251.596 16.8233 250.805 18.0979C249.769 19.5874 249.096 21.3098 248.843 23.121C248.609 24.8447 247.835 26.4433 246.636 27.6739C245.88 28.413 245.286 29.3074 244.891 30.2987C244.496 31.2899 244.31 32.3555 244.344 33.4258C244.339 34.6317 244.04 35.817 243.474 36.8738C242.695 38.3977 241.825 39.8711 240.87 41.2857C240.641 41.6069 240.404 41.9517 239.938 41.9674V41.9674ZM307.149 61.6837C307.058 62.1929 306.857 62.6748 306.561 63.0943C304.423 66.0721 302.437 69.1753 299.688 71.6516C299.115 72.1688 298.588 72.7408 298.038 73.2815C297.548 73.739 297.158 74.2985 296.894 74.9228C296.631 75.5471 296.5 76.2218 296.511 76.9019C296.536 77.7135 296.398 78.5216 296.106 79.2763C295.815 80.0311 295.375 80.7165 294.816 81.2903C293.188 82.9509 291.891 84.9204 290.997 87.0892C290.88 87.3721 290.723 87.6361 290.531 87.8728C290.485 87.9521 290.424 88.0211 290.351 88.0757C290.279 88.1302 290.196 88.1693 290.109 88.1905C290.021 88.2117 289.93 88.2146 289.841 88.1991C289.753 88.1835 289.668 88.1499 289.592 88.1001C289.511 88.0595 289.44 88.0026 289.381 87.9327C289.322 87.8629 289.278 87.7815 289.251 87.6936C289.224 87.6057 289.214 87.5131 289.223 87.4213C289.232 87.3295 289.259 87.2405 289.302 87.1597C290.134 85.4984 290.715 83.6882 291.891 82.2228C292.341 81.6586 292.799 81.0944 293.296 80.5772C293.8 80.093 294.2 79.5063 294.471 78.8547C294.742 78.203 294.877 77.5006 294.869 76.7922C294.877 75.7679 295.117 74.7594 295.57 73.8468C296.023 72.9341 296.678 72.1423 297.481 71.534C300.276 69.0577 302.452 66.0486 304.629 63.0316C305.056 62.4438 305.392 61.7934 305.79 61.1979C305.888 61.044 306.036 60.9307 306.208 60.8777C306.38 60.8247 306.564 60.8354 306.729 60.9079C306.867 60.9785 306.981 61.0904 307.056 61.2289C307.131 61.3674 307.163 61.526 307.149 61.6837V61.6837Z" fill="#B60000"/>
<path d="M150.856 36.7954C150.856 37.3126 150.856 37.6966 150.436 37.8612C150.341 37.9001 150.24 37.9193 150.138 37.9174C150.036 37.9156 149.935 37.8928 149.842 37.8505C149.749 37.8081 149.665 37.747 149.595 37.6708C149.525 37.5946 149.471 37.5048 149.435 37.4067C149.241 36.9835 149.077 36.5461 148.946 36.098C148.512 34.5852 147.602 33.2625 146.358 32.3365C145.481 31.7006 144.742 30.8846 144.189 29.9403C143.635 28.9961 143.279 27.9441 143.143 26.8511C142.904 25.2958 142.146 23.8743 140.997 22.831C139.886 21.8323 138.908 20.689 138.087 19.4301C137.42 18.5032 137.027 17.3985 136.957 16.2485C136.957 15.7626 137.01 15.2533 137.606 15.1827C138.202 15.1122 138.27 15.5511 138.37 15.9664C138.786 17.9291 139.869 19.676 141.424 20.8954C143.376 22.5194 144.664 24.8341 145.036 27.384C145.154 28.0802 145.411 28.7437 145.792 29.3321C146.174 29.9204 146.671 30.4206 147.251 30.8006C148.878 31.9915 150.065 33.7121 150.619 35.6827C150.688 36.145 150.779 36.5447 150.856 36.7954Z" fill="#B60000"/>
<path d="M57.5273 75.5854C57.5273 75.1466 57.6419 74.7469 58.1306 74.6451C58.6194 74.5432 58.795 74.8331 58.9401 75.2014C59.1616 75.7813 59.3602 76.3769 59.6122 76.949C59.8872 77.6261 60.3224 78.2222 60.8784 78.6833C61.4344 79.1444 62.0938 79.456 62.7967 79.5898C63.1938 79.6682 63.5604 79.7935 63.988 79.8562C64.7527 79.946 65.4774 80.2544 66.0796 80.7463C66.6817 81.2381 67.1372 81.8936 67.394 82.6382C67.6635 83.428 68.1368 84.128 68.7636 84.6634C69.3903 85.1989 70.1469 85.5498 70.9527 85.6787C72.614 86.0009 74.1403 86.8345 75.3285 88.0687C75.773 88.5101 76.1195 89.0447 76.3442 89.636C76.4228 89.8026 76.4413 89.9924 76.3966 90.1717C76.3519 90.3509 76.2467 90.5082 76.0998 90.6156C75.7409 90.882 75.4278 90.7253 75.13 90.4823C75.0494 90.4194 74.9775 90.3456 74.9162 90.2629C73.7248 88.3587 71.8615 87.6299 69.8301 87.1284C69.0478 86.9838 68.3145 86.6365 67.6997 86.1194C67.0849 85.6024 66.609 84.9328 66.3172 84.1741C66.0512 83.3597 65.5574 82.6438 64.8973 82.1156C64.2373 81.5874 63.4403 81.2704 62.6058 81.2041C59.7878 80.7339 58.4056 78.6965 57.6572 76.0791C57.6113 75.8989 57.5732 75.75 57.5273 75.5854V75.5854Z" fill="#B60000"/>
<path d="M277.083 99.3531C277.026 101.067 276.804 102.77 276.419 104.439C276.3 104.89 276.133 105.326 275.922 105.74C275.86 105.886 275.748 106.003 275.608 106.071C275.467 106.139 275.308 106.152 275.159 106.108C274.99 106.069 274.842 105.967 274.742 105.822C274.642 105.678 274.597 105.501 274.616 105.324C274.656 105.018 274.714 104.714 274.792 104.415C275.375 101.401 275.583 98.3228 275.411 95.2547C275.381 95.0535 275.33 94.8564 275.258 94.667C275.263 92.3292 275.069 89.9955 274.677 87.6926C274.607 87.2337 274.572 86.77 274.571 86.3056C274.57 86.1467 274.626 85.9931 274.729 85.8744C274.832 85.7557 274.974 85.6804 275.128 85.663C275.28 85.6323 275.438 85.66 275.572 85.7409C275.706 85.8218 275.806 85.9502 275.854 86.1018C275.985 86.4917 276.082 86.893 276.144 87.3008C276.775 91.2854 277.089 95.3162 277.083 99.3531V99.3531ZM332.747 237.281C332.434 240.439 331.815 243.558 330.899 246.59C330.368 248.491 329.681 250.342 328.845 252.123C328.519 252.83 328.075 253.472 327.531 254.019C327.402 254.186 327.215 254.296 327.009 254.327C326.804 254.357 326.594 254.306 326.424 254.184C326.341 254.122 326.272 254.043 326.221 253.952C326.17 253.861 326.139 253.759 326.13 253.655C326.12 253.55 326.133 253.444 326.166 253.345C326.2 253.246 326.254 253.155 326.325 253.079C328.891 249.02 329.944 244.412 330.907 239.757C331.082 238.895 331.174 238.01 331.304 237.14C331.388 236.615 331.617 236.223 332.197 236.356C332.778 236.489 332.77 236.826 332.747 237.281Z" fill="black"/>
<path d="M195.637 9.81483C196.308 9.98374 196.944 10.2729 197.516 10.669C200.187 12.5053 202.605 14.7038 204.702 17.2045C204.772 17.2773 204.836 17.3559 204.893 17.4396C205.137 17.8236 205.244 18.2232 204.893 18.568C204.761 18.6965 204.586 18.7681 204.404 18.7681C204.222 18.7681 204.048 18.6965 203.916 18.568C203.474 18.2161 203.062 17.8255 202.686 17.4004C201.15 15.66 199.458 14.0726 197.631 12.6594C196.945 12.0356 196.118 11.599 195.225 11.3899C194.706 11.3194 194.301 11.1235 194.408 10.5201C194.515 9.9167 195.026 9.75997 195.637 9.81483V9.81483Z" fill="black"/>
<path d="M315.809 316.177C315.244 316.177 314.831 316.099 314.724 315.613C314.617 315.127 314.953 314.775 315.488 314.641C316.921 314.306 318.325 313.856 319.688 313.294C321.157 312.713 322.55 311.947 323.835 311.013C324.255 310.684 324.721 310.331 325.141 310.927C325.561 311.523 325.141 311.907 324.729 312.251C324.416 312.517 324.084 312.758 323.736 312.972C321.497 314.406 319.04 315.442 316.466 316.036L315.809 316.177Z" fill="black"/>
<path d="M282.253 106.539C282.121 106.58 281.981 106.586 281.846 106.556C281.711 106.527 281.585 106.464 281.48 106.372C281.376 106.28 281.295 106.162 281.246 106.03C281.197 105.897 281.181 105.755 281.199 105.614C282.131 103.766 282.595 101.708 282.551 99.6274V97.4489C282.531 97.2656 282.581 97.0816 282.691 96.9354C282.801 96.7893 282.961 96.6925 283.139 96.6652C283.238 96.6395 283.342 96.6368 283.443 96.6575C283.543 96.6782 283.638 96.7217 283.72 96.7848C283.802 96.8479 283.869 96.929 283.916 97.0222C283.964 97.1154 283.99 97.2184 283.994 97.3235C284.109 100.552 284.384 103.796 282.253 106.539ZM337.192 247.641C337.138 247.95 337.069 248.256 336.985 248.557C336.419 250.395 335.543 252.117 334.397 253.643C333.975 254.236 333.426 254.721 332.793 255.062C332.64 255.155 332.46 255.19 332.284 255.161C332.109 255.133 331.948 255.042 331.831 254.905C331.771 254.837 331.725 254.758 331.695 254.672C331.666 254.586 331.653 254.495 331.658 254.404C331.663 254.313 331.685 254.223 331.724 254.141C331.763 254.059 331.817 253.986 331.884 253.925C331.985 253.81 332.092 253.7 332.205 253.596C333.838 252.018 335.016 250.009 335.611 247.789C335.672 247.594 335.725 247.398 335.794 247.202C335.932 246.771 336.191 246.418 336.672 246.52C337.153 246.622 337.253 247.037 337.192 247.641Z" fill="black"/>
<path d="M206.214 12.6438C206.21 12.7609 206.177 12.875 206.119 12.9761C206.062 13.0772 205.98 13.1621 205.883 13.2233C205.786 13.2845 205.675 13.3201 205.561 13.327C205.447 13.3339 205.333 13.3119 205.229 13.2628C204.919 13.1003 204.656 12.8571 204.466 12.5576C203.566 11.3636 202.575 10.2448 201.503 9.21143C201.151 8.90582 200.968 8.52183 201.235 8.12218C201.296 8.0382 201.373 7.96758 201.461 7.91447C201.548 7.86137 201.646 7.82686 201.747 7.81298C201.848 7.79911 201.951 7.80614 202.049 7.83367C202.147 7.86121 202.239 7.90868 202.32 7.97329C203.826 9.21301 205.133 10.6887 206.191 12.346C206.219 12.4425 206.227 12.5439 206.214 12.6438V12.6438Z" fill="black"/>
<path d="M325.653 117.51C325.755 117.517 325.855 117.545 325.947 117.592C326.038 117.64 326.12 117.706 326.186 117.786C326.253 117.866 326.302 117.96 326.333 118.061C326.363 118.161 326.373 118.267 326.363 118.372C326.36 118.477 326.334 118.58 326.287 118.674C326.241 118.768 326.175 118.85 326.094 118.914C326.013 118.978 325.919 119.024 325.819 119.046C325.719 119.069 325.615 119.069 325.515 119.046C325.425 119.044 325.337 119.023 325.255 118.985C325.174 118.946 325.101 118.89 325.042 118.82C324.983 118.751 324.939 118.67 324.913 118.582C324.886 118.494 324.878 118.401 324.889 118.309C324.887 118.205 324.905 118.101 324.943 118.005C324.98 117.908 325.036 117.819 325.107 117.745C325.178 117.671 325.263 117.611 325.357 117.571C325.45 117.531 325.551 117.51 325.653 117.51V117.51Z" fill="#B60000"/>
<path d="M122.753 49.6706C122.753 50.1251 122.6 50.5012 122.081 50.5091C121.561 50.5169 121.37 50.1408 121.355 49.7254C121.34 49.3101 121.531 48.8948 122.035 48.8948C122.539 48.8948 122.73 49.2004 122.753 49.6706Z" fill="#B60000"/>
<path d="M292.303 52.045C292.303 52.617 292.082 52.9305 291.616 52.9462C291.15 52.9618 290.913 52.5779 290.89 52.1625C290.878 52.0729 290.885 51.9817 290.91 51.895C290.936 51.8083 290.978 51.7281 291.036 51.6598C291.094 51.5916 291.166 51.5368 291.246 51.4991C291.326 51.4615 291.413 51.4419 291.501 51.4416C291.683 51.4273 291.864 51.4803 292.011 51.591C292.158 51.7017 292.262 51.8627 292.303 52.045V52.045Z" fill="#B60000"/>
<path d="M167.603 32.6892C167.565 33.1672 167.343 33.4728 166.839 33.4728C166.75 33.4708 166.662 33.4505 166.58 33.4129C166.498 33.3754 166.424 33.3215 166.363 33.2543C166.302 33.1871 166.254 33.1081 166.223 33.0218C166.192 32.9355 166.179 32.8437 166.183 32.7519C166.166 32.645 166.173 32.5354 166.206 32.4323C166.238 32.3292 166.294 32.2354 166.368 32.1588C166.443 32.0822 166.534 32.025 166.635 31.9918C166.735 31.9587 166.842 31.9506 166.946 31.9682C167.389 32.0074 167.573 32.2817 167.603 32.6892Z" fill="#B60000"/>
<path d="M243.359 1.5318C243.157 1.5318 242.962 1.44924 242.819 1.30228C242.676 1.15532 242.596 0.956001 242.596 0.748168C242.586 0.658167 242.595 0.567131 242.621 0.480619C242.647 0.394106 242.689 0.313934 242.747 0.244997C242.804 0.17606 242.874 0.119805 242.953 0.0796673C243.032 0.0395298 243.118 0.0163522 243.206 0.0115498C243.302 -0.00628483 243.4 -0.00343862 243.494 0.0199055C243.588 0.0432496 243.677 0.086575 243.754 0.147096C243.831 0.207617 243.894 0.283994 243.941 0.371317C243.987 0.45864 244.016 0.554976 244.024 0.654131C244.092 1.13999 243.802 1.40642 243.359 1.5318Z" fill="#B60000"/>
<path d="M66.9434 64.1208C66.8899 64.5283 66.699 64.8418 66.2637 64.8026C66.1742 64.8019 66.0858 64.781 66.005 64.7415C65.9242 64.7019 65.8528 64.6445 65.796 64.5735C65.7392 64.5025 65.6982 64.4195 65.6761 64.3304C65.654 64.2414 65.6513 64.1484 65.6681 64.0581C65.67 63.8987 65.7326 63.7464 65.8425 63.6337C65.9523 63.521 66.1008 63.4568 66.2561 63.4547C66.6837 63.4391 66.8518 63.7133 66.9434 64.1208V64.1208Z" fill="#B60000"/>
<path d="M171.269 9.82268C171.269 10.238 171.024 10.4809 170.604 10.4574C170.529 10.4616 170.455 10.4505 170.384 10.4247C170.313 10.399 170.248 10.359 170.193 10.3072C170.137 10.2555 170.093 10.1929 170.061 10.1231C170.029 10.0534 170.012 9.9779 170.009 9.90104C169.995 9.81185 170.001 9.72078 170.025 9.63407C170.05 9.54736 170.092 9.46703 170.149 9.39859C170.206 9.33015 170.277 9.27519 170.357 9.23749C170.437 9.19978 170.524 9.1802 170.612 9.18009C171.047 9.14091 171.23 9.40735 171.269 9.82268Z" fill="#B60000"/>
<path d="M142.997 71.3694L143.051 71.4241H142.967L142.921 71.3538L142.997 71.3694V71.3694Z" fill="#B60000"/>
<path d="M240.205 300.779C239.415 305.881 237.764 310.803 235.325 315.323C233.752 318.113 232.271 320.965 230.682 323.755C227.105 330.179 224.443 337.096 222.778 344.294C220.777 352.491 219.311 360.751 217.883 369.088C217.715 370.068 217.685 370.099 216.722 369.778C215.901 369.489 215.179 368.961 214.645 368.258C213.612 366.959 212.96 365.385 212.767 363.721C212.531 361.233 212.506 358.729 212.69 356.237C212.935 348.056 213.454 339.89 214.279 331.748C215.165 324.251 216.722 316.854 218.929 309.65C219.51 307.651 220.151 305.677 220.907 303.749C225.349 304.077 229.813 303.605 234.096 302.354C235.837 301.821 237.548 301.179 239.319 300.787C239.625 300.701 239.907 300.567 240.205 300.779V300.779Z" fill="white"/>
<path d="M199.563 198.608C199.397 199.077 199.119 199.495 198.753 199.823C196.088 203.052 193.209 206.092 190.353 209.101C184.885 214.853 179.417 220.597 174.369 226.749C167.909 234.609 162.348 243.205 157.797 252.366C156.736 254.505 155.896 256.739 155.025 258.972C154.789 259.583 154.781 260.539 153.758 260.406C153.177 260.328 153.131 259.709 153.574 258.345C154.771 254.855 156.26 251.477 158.026 248.252C163.609 237.874 170.419 228.243 178.302 219.579C183.487 213.764 188.948 208.232 194.27 202.558C195.469 201.281 196.607 199.948 197.776 198.64C198.008 198.303 198.321 198.033 198.684 197.856C198.793 197.819 198.909 197.811 199.022 197.833C199.135 197.854 199.24 197.905 199.328 197.981C199.416 198.056 199.484 198.153 199.525 198.263C199.566 198.373 199.579 198.492 199.563 198.608V198.608Z" fill="black"/>
<path d="M293.288 281.854C293.288 287.285 291.188 291.861 287.782 295.889C286.572 297.381 285.172 298.698 283.62 299.807C282.489 300.61 281.207 301.16 279.855 301.422C279.003 301.605 278.117 301.52 277.312 301.179C277.138 301.127 276.989 301.009 276.897 300.849C276.805 300.689 276.776 300.498 276.816 300.317C276.83 300.228 276.861 300.143 276.906 300.067C276.952 299.991 277.013 299.924 277.084 299.872C277.154 299.819 277.235 299.782 277.32 299.761C277.405 299.741 277.493 299.738 277.579 299.752C280.558 300.411 282.612 298.702 284.59 296.861C285.299 296.188 285.967 295.471 286.591 294.714C291.096 289.369 292.7 283.288 290.944 276.384C290.535 274.609 289.991 272.869 289.317 271.181C285.894 262.871 281.611 254.963 276.541 247.594C275.777 246.543 274.952 245.564 274.166 244.545C273.939 244.265 273.727 243.972 273.532 243.668C273.438 243.541 273.394 243.382 273.409 243.223C273.425 243.065 273.499 242.918 273.616 242.813C273.73 242.709 273.871 242.642 274.022 242.621C274.173 242.6 274.327 242.626 274.464 242.696C274.777 242.869 275.051 243.11 275.266 243.401C276.668 244.917 277.945 246.55 279.084 248.283C283.573 255.101 287.431 262.334 290.608 269.888C292.296 273.644 293.209 277.718 293.288 281.854V281.854ZM246.254 275.938C246.315 279.151 246.101 282.52 244.726 285.694C243.185 289.23 240.858 292.347 237.93 294.792C235.822 296.455 233.299 297.471 230.652 297.723H230.507C229.896 297.723 229.109 297.848 229.041 297.017C228.972 296.187 229.804 296.234 230.362 296.171C232.809 295.97 235.136 295.001 237.029 293.397C240.625 290.153 243.359 286.344 244.268 281.4C244.698 278.775 244.808 276.106 244.597 273.454C244.436 269.022 243.694 264.633 242.389 260.406C242.341 260.26 242.302 260.111 242.275 259.959C242.214 259.536 242.145 259.097 242.642 258.894C243.138 258.69 243.512 259.019 243.703 259.481C244.435 261.257 244.962 263.113 245.276 265.014C245.946 268.614 246.274 272.272 246.254 275.938V275.938ZM181.838 300.536C181.632 300.536 181.227 300.591 180.822 300.591C180.732 300.596 180.643 300.583 180.558 300.551C180.473 300.52 180.396 300.471 180.33 300.408C180.265 300.345 180.212 300.269 180.176 300.185C180.14 300.1 180.121 300.009 180.12 299.917C180.102 299.734 180.147 299.551 180.248 299.399C180.348 299.248 180.498 299.137 180.67 299.086C181.015 299.006 181.37 298.977 181.723 299C184.03 299.118 186.303 298.393 188.138 296.955C194.607 291.916 198.967 285.49 200.174 277.082C200.273 276.439 200.174 275.514 201.082 275.554C201.991 275.593 201.732 276.549 201.724 277.16C201.716 278.723 201.458 280.275 200.96 281.752C198.932 287.968 195.189 293.445 190.185 297.519C187.858 299.542 184.887 300.616 181.838 300.536V300.536Z" fill="black"/>
<path d="M240.816 178.876C240.816 178.406 240.908 178.093 241.29 177.928C241.385 177.89 241.488 177.873 241.59 177.879C241.692 177.885 241.792 177.914 241.882 177.964C241.973 178.014 242.051 178.084 242.112 178.169C242.174 178.253 242.216 178.35 242.237 178.453C242.481 179.135 242.664 179.848 242.947 180.514C244.922 185.373 247.56 189.919 250.782 194.016C251.041 194.335 251.283 194.667 251.508 195.012C251.568 195.08 251.613 195.161 251.641 195.248C251.668 195.336 251.678 195.428 251.668 195.52C251.659 195.612 251.631 195.7 251.586 195.78C251.541 195.86 251.481 195.929 251.408 195.983C251.271 196.101 251.098 196.165 250.92 196.165C250.741 196.165 250.568 196.101 250.431 195.983C250.224 195.833 250.037 195.657 249.873 195.458C245.939 190.74 242.917 185.296 240.969 179.417C240.908 179.213 240.854 179.01 240.816 178.876ZM150.428 281.094V279.37C150.428 278.798 150.428 277.975 151.329 278.038C152.23 278.101 151.994 278.821 151.971 279.386C151.916 281.524 152.117 283.66 152.566 285.749C153.166 289.248 154.349 292.615 156.064 295.701C156.208 295.915 156.326 296.147 156.415 296.391C156.459 296.536 156.454 296.694 156.4 296.836C156.346 296.978 156.246 297.098 156.117 297.174C155.997 297.275 155.842 297.322 155.688 297.306C155.533 297.289 155.391 297.211 155.293 297.088C154.984 296.745 154.713 296.37 154.483 295.967C152.013 291.405 150.624 286.31 150.428 281.094V281.094Z" fill="black"/>
<path d="M265.536 212.784C265.538 212.902 265.51 213.018 265.454 213.121C265.399 213.224 265.318 213.311 265.22 213.372C265.122 213.433 265.01 213.466 264.895 213.469C264.781 213.472 264.667 213.444 264.566 213.388C264.215 213.175 263.896 212.911 263.619 212.604C261.349 210.227 259.091 207.842 256.846 205.45C256.663 205.269 256.508 205.06 256.387 204.831C256.303 204.698 256.268 204.538 256.289 204.382C256.31 204.225 256.386 204.081 256.502 203.976C256.614 203.867 256.76 203.801 256.914 203.788C257.068 203.775 257.222 203.817 257.35 203.906C257.63 204.11 257.886 204.347 258.113 204.611C260.297 206.852 262.479 209.099 264.658 211.35C265.078 211.774 265.521 212.142 265.536 212.784V212.784Z" fill="black"/>
<path d="M239.503 276.972C239.205 279.608 238.605 282.199 237.716 284.691C237.682 284.787 237.644 284.881 237.601 284.973C237.387 285.404 237.12 285.851 236.57 285.686C236.02 285.522 236.043 284.996 236.142 284.511C236.204 284.26 236.28 284.014 236.372 283.774C237.143 281.515 237.686 279.181 237.991 276.808C238 276.653 238.018 276.498 238.044 276.345C238.136 275.891 238.357 275.562 238.854 275.562C239.35 275.562 239.487 276.008 239.503 276.471V276.972Z" fill="black"/>
<path d="M316.931 272.208C316.931 272.78 316.825 273.124 316.458 273.258C316.091 273.391 315.694 273.132 315.511 272.717C315.267 272.09 315.076 271.44 314.847 270.805C314.358 269.551 313.746 268.351 313.021 267.224C312.823 266.924 312.642 266.612 312.479 266.291C312.437 266.209 312.411 266.12 312.403 266.028C312.394 265.936 312.404 265.843 312.431 265.755C312.458 265.666 312.502 265.585 312.56 265.514C312.618 265.443 312.689 265.385 312.769 265.343C312.897 265.253 313.053 265.215 313.206 265.239C313.359 265.262 313.498 265.344 313.594 265.468C315.177 267.435 316.316 269.736 316.931 272.208Z" fill="black"/>
<path d="M153.544 134.123C153.493 134.484 153.365 134.829 153.17 135.134C152.363 136.929 151.812 138.835 151.535 140.792C151.538 141.514 151.576 142.236 151.65 142.955C151.65 143.511 151.841 144.154 151.291 144.522C150.741 144.89 150.13 144.671 149.603 144.318C148.997 143.934 148.334 143.654 147.641 143.487C146.313 143.11 144.899 143.215 143.639 143.785C143.143 144.005 142.684 144.122 142.249 143.66C141.814 143.198 142.058 142.782 142.249 142.351C142.771 141.227 143.188 140.054 143.494 138.848C143.761 137.521 143.776 136.154 143.54 134.82C143.44 134.335 143.295 133.778 143.822 133.394C144.349 133.01 144.777 133.355 145.227 133.582C146.3 134.179 147.503 134.485 148.723 134.471C149.944 134.458 151.14 134.125 152.2 133.504C153.002 133.057 153.567 133.324 153.544 134.123V134.123Z" fill="#B60000"/>
<path d="M162.601 92.3474C162.596 91.8782 162.687 91.4132 162.867 90.9819C163.047 90.5506 163.312 90.1623 163.646 89.8418C163.98 89.5213 164.375 89.2755 164.807 89.12C165.238 88.9645 165.696 88.9027 166.152 88.9386C166.61 88.9385 167.063 89.0322 167.485 89.2143C167.907 89.3964 168.289 89.6632 168.609 89.999C168.93 90.3348 169.181 90.7328 169.349 91.1698C169.517 91.6067 169.599 92.0737 169.589 92.5433C169.541 93.4887 169.149 94.3811 168.489 95.0431C167.83 95.7052 166.952 96.0884 166.03 96.1167C165.558 96.1179 165.091 96.0193 164.659 95.827C164.226 95.6347 163.836 95.3529 163.515 94.9991C163.193 94.6454 162.946 94.2273 162.788 93.771C162.631 93.3147 162.567 92.8301 162.601 92.3474Z" fill="#B60000"/>
<path d="M127.946 235.549C127.65 238.334 127.829 241.149 128.473 243.871C128.79 245.398 129.261 246.887 129.878 248.315C130.107 248.863 130.534 249.553 129.733 249.921C128.931 250.289 128.679 249.521 128.411 248.981C127.268 246.423 126.593 243.671 126.418 240.862C126.281 239.522 126.319 238.159 126.304 236.811C126.285 236.287 126.387 235.766 126.602 235.29C126.671 235.122 126.794 234.984 126.952 234.9C127.109 234.816 127.291 234.79 127.465 234.828C127.619 234.862 127.756 234.956 127.845 235.09C127.935 235.224 127.971 235.389 127.946 235.549V235.549Z" fill="black"/>
<path d="M139.401 318.254C139.391 318.37 139.356 318.483 139.298 318.584C139.24 318.685 139.161 318.771 139.067 318.836C138.972 318.902 138.865 318.945 138.752 318.962C138.639 318.979 138.524 318.97 138.415 318.936C137.829 318.774 137.259 318.556 136.712 318.285C133.959 316.827 131.444 314.937 129.259 312.682C129.082 312.499 128.935 312.287 128.824 312.055C128.764 311.938 128.741 311.804 128.757 311.672C128.773 311.541 128.829 311.417 128.915 311.319C129.01 311.193 129.146 311.107 129.298 311.078C129.451 311.049 129.608 311.079 129.74 311.162C130.035 311.36 130.314 311.582 130.573 311.828C132.881 314.109 135.554 315.965 138.477 317.314C138.881 317.486 139.317 317.674 139.401 318.254V318.254Z" fill="black"/>
<path d="M133.1 235.784C133.268 235.813 133.42 235.906 133.524 236.043C133.629 236.181 133.679 236.354 133.666 236.529C133.833 238.7 134.415 240.817 135.376 242.758C135.479 242.994 135.541 243.246 135.559 243.503C135.572 243.633 135.544 243.764 135.482 243.877C135.419 243.991 135.323 244.082 135.208 244.138C135.096 244.198 134.969 244.224 134.843 244.212C134.717 244.199 134.597 244.149 134.498 244.067C134.228 243.832 134.014 243.537 133.872 243.205C132.976 241.345 132.407 239.336 132.192 237.273C132.123 236.914 132.163 236.542 132.306 236.207C132.378 236.06 132.494 235.94 132.637 235.864C132.779 235.788 132.941 235.76 133.1 235.784V235.784Z" fill="black"/>
<path d="M146.48 317.337C145.8 317.28 145.139 317.076 144.542 316.738C143.944 316.401 143.423 315.937 143.013 315.378C142.885 315.246 142.812 315.067 142.812 314.88C142.812 314.694 142.885 314.515 143.013 314.383C143.065 314.307 143.132 314.243 143.21 314.197C143.288 314.15 143.375 314.121 143.465 314.112C143.555 314.103 143.646 314.114 143.731 314.145C143.817 314.175 143.895 314.224 143.96 314.289C144.802 315.134 145.862 315.715 147.014 315.966C147.091 315.98 147.164 316.011 147.229 316.056C147.294 316.101 147.349 316.159 147.392 316.226C147.434 316.294 147.462 316.37 147.475 316.449C147.487 316.528 147.484 316.609 147.465 316.687C147.305 317.29 146.808 317.29 146.48 317.337Z" fill="black"/>
<path d="M154.674 171.087C154.636 171.62 154.391 171.957 153.849 171.965C153.762 171.974 153.674 171.962 153.592 171.932C153.51 171.901 153.436 171.852 153.374 171.788C153.313 171.725 153.266 171.648 153.237 171.563C153.208 171.478 153.198 171.388 153.208 171.299C153.182 171.095 153.234 170.89 153.354 170.725C153.474 170.561 153.652 170.452 153.849 170.421C154.323 170.343 154.567 170.64 154.674 171.087Z" fill="#B60000"/>
<path d="M145.678 208.537C146.128 208.6 146.442 208.843 146.442 209.321C146.42 209.526 146.321 209.715 146.165 209.845C146.009 209.976 145.809 210.038 145.609 210.018C145.128 210.018 144.945 209.619 144.983 209.148C145.021 208.678 145.281 208.553 145.678 208.537Z" fill="#B60000"/>
<path d="M186.626 188.202C186.612 188.405 186.527 188.596 186.387 188.74C186.246 188.884 186.06 188.971 185.862 188.985C185.458 189.025 185.229 188.727 185.198 188.327C185.173 188.226 185.173 188.12 185.197 188.019C185.222 187.918 185.27 187.825 185.338 187.747C185.406 187.67 185.491 187.611 185.587 187.575C185.682 187.54 185.785 187.529 185.885 187.544C185.977 187.531 186.07 187.539 186.159 187.567C186.247 187.594 186.329 187.64 186.399 187.702C186.469 187.765 186.526 187.841 186.565 187.927C186.604 188.013 186.625 188.107 186.626 188.202V188.202Z" fill="#B60000"/>
<path d="M177.874 110.457C177.863 110.533 177.837 110.606 177.799 110.671C177.76 110.737 177.709 110.794 177.649 110.839C177.588 110.884 177.52 110.917 177.447 110.935C177.374 110.952 177.299 110.955 177.225 110.943C177.138 110.946 177.051 110.928 176.972 110.891C176.893 110.853 176.823 110.797 176.769 110.727C176.715 110.657 176.678 110.575 176.66 110.487C176.642 110.399 176.645 110.309 176.668 110.222C176.669 110.146 176.686 110.071 176.718 110.003C176.75 109.934 176.797 109.874 176.854 109.826C176.912 109.778 176.979 109.744 177.051 109.725C177.123 109.707 177.198 109.706 177.271 109.721C177.446 109.737 177.608 109.823 177.721 109.961C177.834 110.099 177.889 110.278 177.874 110.457V110.457Z" fill="#B60000"/>
<path d="M259.144 161.582C259.355 161.574 259.565 161.615 259.759 161.7C259.953 161.785 260.127 161.913 260.267 162.075C261.173 162.828 262.084 163.569 263.001 164.301C263.635 164.832 264.435 165.11 265.254 165.084C265.509 165.069 265.765 165.082 266.017 165.124C266.468 165.21 266.964 165.327 267.125 165.829C267.285 166.33 266.941 166.683 266.567 166.989C266.193 167.294 265.643 167.772 265.185 168.219C263.907 169.269 263.042 170.758 262.749 172.411C262.672 172.889 262.558 173.344 261.985 173.469C261.759 173.517 261.524 173.484 261.318 173.375C261.113 173.267 260.949 173.09 260.855 172.874C259.839 171.142 258.251 170.523 256.387 170.382C256.185 170.382 255.984 170.367 255.784 170.335C254.715 170.1 254.463 169.402 255.135 168.548C255.232 168.429 255.34 168.319 255.456 168.219C257.111 166.806 258.175 164.795 258.426 162.6C258.533 162.036 258.724 161.605 259.144 161.582V161.582ZM277.931 166.605C277.81 166.606 277.691 166.568 277.592 166.497C277.494 166.425 277.42 166.323 277.381 166.205C277.31 166.064 277.291 165.902 277.328 165.748C277.364 165.594 277.453 165.458 277.579 165.367C279.107 164.583 279.557 162.922 280.298 161.527C280.67 160.697 281.2 159.952 281.855 159.335C282.511 158.717 283.279 158.24 284.116 157.93C285.776 157.36 287.148 156.141 287.935 154.537C288.831 152.764 290.299 151.365 292.089 150.579C293.777 149.796 294.8 148.275 295.839 146.794C296.107 146.354 296.4 145.93 296.717 145.525C296.842 145.393 297.009 145.31 297.188 145.291C297.366 145.273 297.546 145.319 297.694 145.423C297.851 145.515 297.968 145.666 298.021 145.844C298.073 146.021 298.057 146.213 297.977 146.379C297.895 146.625 297.782 146.86 297.641 147.077C296.198 149.294 294.693 151.465 292.12 152.468C291.067 152.897 290.213 153.721 289.729 154.772C289.194 155.927 288.434 156.958 287.494 157.799C286.555 158.64 285.457 159.274 284.269 159.662C283.445 159.953 282.748 160.533 282.299 161.3C281.696 162.26 281.155 163.26 280.68 164.293C280.338 165.047 279.811 165.697 279.153 166.182C278.806 166.464 278.374 166.614 277.931 166.605V166.605Z" fill="#B60000"/>
<path d="M291.303 131.38C291.277 132.225 290.936 133.027 290.351 133.62C289.765 134.214 288.979 134.554 288.156 134.57C287.339 134.538 286.563 134.196 285.979 133.609C285.394 133.022 285.043 132.233 284.995 131.396C284.995 130.538 285.327 129.714 285.918 129.107C286.51 128.501 287.312 128.16 288.149 128.16C288.985 128.16 289.787 128.501 290.379 129.107C290.97 129.714 291.303 130.538 291.303 131.396V131.38Z" fill="#B60000"/>
<path d="M259.244 88.6565C259.356 88.6716 259.464 88.71 259.562 88.7692C259.659 88.8283 259.744 88.9072 259.811 89.0009C259.878 89.0946 259.926 89.2012 259.952 89.3144C259.978 89.4276 259.981 89.545 259.961 89.6595C259.961 90.1297 259.74 90.5215 259.251 90.4432C259.025 90.4012 258.821 90.2747 258.68 90.0881C258.539 89.9014 258.471 89.6678 258.488 89.4323C258.482 89.3289 258.498 89.2255 258.534 89.1288C258.57 89.0321 258.625 88.9443 258.697 88.8711C258.768 88.7979 258.854 88.741 258.948 88.704C259.042 88.667 259.143 88.6508 259.244 88.6565V88.6565Z" fill="#B60000"/>
<path d="M306.324 179.041C306.255 179.441 306.057 179.715 305.644 179.731C305.232 179.746 305.041 179.417 305.072 179.018C305.102 178.618 305.285 178.297 305.713 178.312C306.141 178.328 306.301 178.634 306.324 179.041Z" fill="#B60000"/>
<path d="M265.124 134.75C265.127 134.828 265.113 134.905 265.084 134.977C265.054 135.048 265.01 135.112 264.954 135.165C264.898 135.217 264.832 135.256 264.759 135.279C264.687 135.302 264.611 135.309 264.536 135.298C264.2 135.298 263.955 135.134 263.963 134.758C263.971 134.382 264.2 134.076 264.612 134.123C264.76 134.139 264.896 134.213 264.992 134.33C265.087 134.447 265.135 134.598 265.124 134.75Z" fill="#B60000"/>
<path d="M218.349 127.274C220.411 129.625 222.442 131.772 224.558 133.794C226.408 135.581 228.375 137.235 230.445 138.746C231.356 139.412 232.212 140.154 233.004 140.964C234.598 142.511 235.668 144.54 236.058 146.755C237.01 151.663 237.718 156.616 238.181 161.597C238.237 162.219 238.089 162.842 237.761 163.368C236.102 166.25 233.882 168.749 231.24 170.711C226.123 174.512 220.357 176.98 214.439 179.088C212.402 179.751 210.289 180.138 208.154 180.24C207.858 180.309 207.55 180.286 207.267 180.175C206.984 180.063 206.74 179.868 206.565 179.613C201.854 172.623 197.195 165.602 193.812 157.797C192.74 155.321 191.835 152.774 191.101 150.172C190.393 147.715 190.174 145.136 190.457 142.59C190.74 140.045 191.52 137.583 192.751 135.353C194 132.964 195.449 130.691 197.081 128.559C198.936 126.099 200.899 123.701 202.938 121.06C203.114 122.447 203.228 123.567 203.411 124.68C204.388 131.192 207.4 137.201 211.995 141.803C213.746 143.634 215.959 144.929 218.387 145.541C218.978 145.715 219.608 145.687 220.182 145.462C220.419 145.406 220.638 145.285 220.813 145.112C220.989 144.938 221.115 144.719 221.179 144.477C221.243 144.236 221.241 143.981 221.174 143.741C221.107 143.5 220.978 143.282 220.8 143.111C220.226 142.437 219.459 141.965 218.609 141.763C218.337 141.726 218.089 141.588 217.909 141.376C217.729 141.164 217.63 140.892 217.631 140.612C217.214 137.457 217.086 134.269 217.249 131.09C217.396 129.762 217.768 128.471 218.349 127.274V127.274Z" fill="white"/>
<path d="M215.424 141.591C214.764 141.211 214.164 140.73 213.645 140.165C208.887 135.377 206.413 129.484 205.321 122.807C204.869 120.154 205.414 117.423 206.848 115.167C210.891 108.353 214.463 101.257 217.54 93.9304C219.207 89.6734 220.237 85.1819 220.594 80.6085C221.083 75.2328 220.831 69.8727 220.64 64.5048C220.496 58.8827 219.888 53.2831 218.823 47.7663C218.371 45.3568 217.529 43.0419 216.333 40.9174C215.866 40.0173 215.215 39.2317 214.424 38.6148C213.633 37.9979 212.721 37.5644 211.751 37.344L211.606 37.3048C208.246 36.3488 208.246 36.3488 208.742 32.697C210.848 32.8842 212.969 32.6797 215.004 32.0936C216.725 31.636 218.37 30.9176 219.884 29.9621C221.129 29.1158 222.129 29.296 223.114 30.4245C223.593 30.9033 223.941 31.5027 224.124 32.1628C224.306 32.8229 224.316 33.5205 224.153 34.1859C223 38.4097 223.802 42.4455 225.077 46.4655C226.872 52.1077 228.934 57.6558 230.476 63.3842C231.125 65.7978 231.752 68.2036 232.317 70.6407C233.495 75.6334 233.299 80.8638 231.752 85.7492C227.681 98.977 223.16 112.017 217.081 124.429C215.187 128.247 214.463 132.563 215.004 136.811C215.18 138.347 215.272 139.883 215.424 141.591V141.591ZM154.285 79.0256C152.226 76.6239 150.434 73.9958 148.939 71.1892C152.065 68.2323 155.183 65.2728 158.294 62.3106C165.816 55.1247 173.919 48.6597 181.968 42.1712C185.409 39.418 188.762 36.5812 192.025 33.6609C194.144 31.7082 196.498 30.0413 199.028 28.7005C200.2 28.0607 201.523 27.7728 202.847 27.8698C203.543 27.8754 204.218 28.1142 204.769 28.55C205.321 28.9857 205.718 29.5944 205.901 30.2834C206.508 32.3337 206.465 34.5287 205.779 36.5525C205.504 37.4459 205.252 37.5477 204.443 37.1402C203.9 36.8581 203.404 36.4898 202.915 36.1685C202.371 35.7826 201.767 35.4939 201.128 35.3144C200.763 35.1889 200.366 35.2059 200.012 35.362C199.659 35.5182 199.374 35.8025 199.211 36.1607C199.005 36.5777 198.851 37.0201 198.753 37.4772C198.234 39.6479 198.371 39.5147 196.111 39.5773H193.369C192.987 39.5368 192.601 39.5911 192.244 39.7356C191.886 39.8802 191.568 40.1108 191.315 40.408C187.848 44.9688 183.228 48.2992 179.226 52.2958C175.11 56.402 171.345 60.8609 167.382 65.116C163.418 69.3712 159.516 73.6263 155.598 77.8815C155.254 78.3631 154.804 78.755 154.285 79.0256V79.0256Z" fill="white"/>
<path d="M232.79 108.655C232.703 108.711 232.629 108.785 232.57 108.871C232.512 108.958 232.471 109.056 232.451 109.159C232.43 109.262 232.43 109.369 232.45 109.472C232.47 109.575 232.511 109.673 232.569 109.76C232.843 110.159 233.332 110.065 233.683 109.901C234.296 109.63 234.979 109.578 235.623 109.752C236.662 110.026 236.929 110.637 236.341 111.57C235.768 112.373 235.384 113.3 235.217 114.28C235.05 115.26 235.105 116.266 235.379 117.22C235.562 117.839 235.31 118.106 234.745 118.16C234.18 118.215 233.829 118.207 233.37 118.239C232.558 118.261 231.748 118.326 230.942 118.435C230.685 118.437 230.432 118.499 230.203 118.618C229.974 118.737 229.775 118.909 229.621 119.12C229.467 119.33 229.363 119.575 229.317 119.834C229.27 120.093 229.283 120.36 229.353 120.613C229.43 121.193 229.476 121.601 228.827 121.836C228.678 121.874 228.539 121.945 228.419 122.042C228.299 122.139 228.199 122.26 228.127 122.399C228.056 122.538 228.013 122.69 228.002 122.847C227.99 123.004 228.011 123.161 228.063 123.309C228.111 123.455 228.107 123.615 228.051 123.758C227.995 123.902 227.891 124.02 227.757 124.092C227.469 124.316 227.258 124.628 227.155 124.984C227.052 125.339 227.063 125.718 227.185 126.067C227.406 126.788 227.04 127.133 226.536 127.454C225.138 128.34 223.611 128.238 222.099 128.003C221.465 127.917 221.213 127.219 220.739 126.804C219.433 125.738 219.372 124.672 220.166 123.113C221.74 120.025 223.038 116.789 224.451 113.615C224.619 113.239 224.687 112.832 225.046 112.542C227.355 110.667 229.995 109.267 232.821 108.42C232.912 108.475 232.943 108.537 232.912 108.592C232.882 108.647 232.828 108.655 232.79 108.655Z" fill="white"/>
<path d="M191.33 114.947C191.682 111.813 191.941 108.725 192.422 105.646C193.117 101.195 195.294 97.4645 198.043 94.0322C200.896 90.4002 204.635 87.6073 208.88 85.9373C209.906 85.4767 211.012 85.2316 212.133 85.2163C212.568 85.2163 212.965 85.3417 213.003 85.8746C213.042 86.4074 212.66 86.5955 212.24 86.6582C206.13 87.8572 201.808 91.7362 198.142 96.5947C195.305 100.445 193.685 105.094 193.499 109.917C193.385 111.625 193.148 113.333 192.965 115.042C192.94 115.352 192.883 115.66 192.797 115.958C192.751 116.138 192.64 116.293 192.487 116.391C192.333 116.488 192.149 116.522 191.972 116.483C191.819 116.463 191.678 116.389 191.571 116.276C191.464 116.162 191.398 116.014 191.384 115.856C191.361 115.546 191.361 115.234 191.384 114.924L191.33 114.947Z" fill="#B60000"/>
<path d="M146.312 70.6642C148.115 74.5582 150.447 78.1702 153.238 81.3922C154.002 82.2385 153.322 82.6617 152.948 83.2337C152.467 83.2337 152.375 82.8262 152.185 82.5598C150.179 79.6917 148.175 76.8183 146.174 73.9398C145.976 73.642 145.785 73.3285 145.617 73.0151C144.945 71.7691 144.953 71.7613 146.312 70.6642V70.6642Z" fill="white"/>
<path d="M192.545 163.658C192.545 164.05 192.384 164.371 191.957 164.442C191.755 164.477 191.548 164.433 191.376 164.32C191.204 164.207 191.079 164.033 191.025 163.831C190.273 162.244 189.32 160.766 188.192 159.434C187.97 159.145 187.756 158.855 187.566 158.549C187.4 158.29 187.267 158.011 187.168 157.718C187.111 157.613 187.078 157.496 187.072 157.375C187.065 157.255 187.086 157.135 187.133 157.024C187.18 156.913 187.25 156.815 187.34 156.737C187.43 156.659 187.535 156.603 187.65 156.574C188.115 156.417 188.413 156.66 188.581 157.115C188.986 158.212 189.849 158.98 190.506 159.889C191.123 160.71 191.679 161.577 192.17 162.483C192.395 162.833 192.524 163.239 192.545 163.658V163.658ZM238.571 97.5351C238.329 99.323 237.72 101.038 236.784 102.566C236.52 103.015 236.143 103.383 235.692 103.632C235.558 103.706 235.403 103.735 235.252 103.712C235.1 103.689 234.96 103.617 234.852 103.506C234.741 103.398 234.67 103.254 234.651 103.099C234.631 102.943 234.664 102.785 234.745 102.652C234.842 102.467 234.963 102.295 235.104 102.143C235.976 101.052 236.571 99.7574 236.838 98.3736C236.922 98.0209 236.998 97.6683 237.09 97.3156C237.181 96.963 237.426 96.532 237.922 96.532C238.418 96.532 238.602 97.1354 238.571 97.5351V97.5351Z" fill="#B60000"/>
<path d="M187.313 137.101C186.888 138.831 186.249 140.498 185.412 142.061C185.376 142.159 185.322 142.249 185.252 142.325C185.182 142.402 185.098 142.463 185.005 142.505C184.912 142.547 184.811 142.57 184.709 142.572C184.607 142.574 184.506 142.555 184.412 142.516C183.854 142.273 183.938 141.732 184.091 141.317C184.244 140.901 184.465 140.463 184.656 140.039C185.155 138.964 185.556 137.844 185.855 136.693C185.985 136.176 186.275 135.831 186.832 135.996C187.39 136.16 187.359 136.537 187.313 137.101V137.101Z" fill="#B60000"/>
<path d="M234.096 107.816L238.22 105.975C238.21 107.004 237.986 108.019 237.563 108.953C236.617 108.336 235.504 108.045 234.386 108.122C234.05 108.224 233.974 108.106 234.096 107.816V107.816Z" fill="white"/>
<path d="M234.096 107.816L234.386 108.122C233.899 108.359 233.386 108.538 232.859 108.655C232.842 108.639 232.829 108.621 232.82 108.6C232.811 108.579 232.807 108.556 232.807 108.533C232.807 108.511 232.811 108.488 232.82 108.467C232.829 108.446 232.842 108.427 232.859 108.412C233.08 107.903 233.6 107.926 234.096 107.816Z" fill="#9CA8A8"/>
<path d="M123.081 199.792C123.05 201.682 122.889 203.567 122.6 205.434C121.187 217.188 119.545 228.88 117.781 240.572C116.49 249.02 114.894 257.405 113.436 265.813C112.367 271.972 111.465 278.155 110.518 284.33C109.655 289.941 108.77 295.544 107.983 301.171C107.028 308.028 106.211 314.908 105.257 321.773C104.123 330.5 102.519 339.157 100.453 347.703C99.7203 351.004 99.21 354.353 98.9259 357.726C98.6965 359.64 98.3082 361.53 97.7651 363.376C97.6669 363.832 97.4447 364.25 97.1244 364.581C96.804 364.913 96.3986 365.144 95.9552 365.249C93.8669 365.9 91.7206 366.335 89.548 366.549C88.2774 366.732 86.9833 366.488 85.8589 365.854C84.7345 365.22 83.84 364.229 83.3088 363.031C81.8273 360.1 81.3233 356.919 80.9338 353.714C80.2999 348.534 80.1701 343.315 80.0327 338.103C79.7043 327.775 79.7807 317.455 80.1167 307.126C80.3687 299.415 81.0865 291.728 81.3996 284.017C81.8197 273.391 82.5375 262.78 82.6521 252.139C82.7666 241.34 82.9117 230.549 83.4157 219.759C83.4768 218.254 83.7899 216.757 83.851 215.253C83.8389 214.764 83.9991 214.287 84.3022 213.91C84.6052 213.533 85.0307 213.281 85.5006 213.2C88.1047 212.338 90.6706 211.35 93.3129 210.606C97.6735 209.383 101.958 207.934 106.211 206.382C107.4 205.932 108.61 205.548 109.839 205.23C113.069 204.447 115.948 202.66 119.003 201.492C120.309 200.975 121.599 200.191 123.081 199.792V199.792ZM111.481 90.5999C111.313 91.5167 110.465 91.697 109.862 92.0966C107.213 93.7482 104.702 95.6223 102.355 97.6996C99.7659 100.051 98.063 102.966 98.2768 106.727C98.3257 107.507 98.4773 108.277 98.7274 109.015C99.6901 111.839 101.437 114.313 103.752 116.131C106.082 118.027 108.77 118.215 111.572 117.698C114.018 117.208 116.35 116.246 118.445 114.861C120.652 113.466 122.791 111.962 124.875 110.379C125.211 110.063 125.599 109.81 126.021 109.634C126.937 112.134 127.273 114.775 127.846 117.369C130.313 128.606 132.008 139.985 133.566 151.387C134.429 157.734 134.834 164.136 135.223 170.531C135.414 173.759 135.59 176.988 135.513 180.224C135.467 181.942 135.285 183.653 134.971 185.341C134.512 187.875 133.227 190.174 131.329 191.861C129.373 193.69 127.146 195.188 124.73 196.297C120.423 198.264 116.139 200.301 111.748 202.072C108.548 203.365 105.18 204.204 101.935 205.395C95.9629 207.573 89.716 208.968 83.7823 211.366C83.2177 209.623 82.9089 207.803 82.8659 205.967C82.6406 202.169 82.6635 198.36 82.9346 194.565C83.1281 191.075 83.3445 187.591 83.5837 184.111C83.9656 178.712 84.294 173.297 84.6682 167.89C85.134 161.229 85.0271 154.568 84.9125 147.884C84.7827 140.329 84.2176 132.775 84.6529 125.213C84.8983 119.125 85.7868 113.081 87.3028 107.189C88.7691 101.876 91.8008 97.5507 95.6039 93.7579C97.2535 92.1201 99.4223 91.407 101.538 90.6939C103.089 90.2088 104.668 89.8215 106.265 89.5341C107.157 89.3087 108.087 89.2872 108.988 89.4714C109.89 89.6556 110.741 90.0408 111.481 90.5999V90.5999ZM88.7538 368.893C92.0876 368.878 95.3767 368.105 98.3837 366.628C98.5312 366.537 98.7041 366.5 98.8746 366.523C99.0451 366.546 99.203 366.627 99.323 366.753C100.209 367.451 101.118 368.125 101.935 368.9C103.363 370.24 104.905 371.424 106.44 372.623C109.655 375.11 113.435 376.715 117.422 377.285C118.529 377.45 119.629 377.654 120.713 377.912C121.266 378.002 121.78 378.259 122.189 378.652C122.597 379.045 122.881 379.554 123.004 380.114C123.128 380.705 123.076 381.32 122.854 381.879C122.632 382.438 122.25 382.915 121.76 383.249C120.161 384.542 118.27 385.4 116.261 385.741C113.459 386.266 110.679 385.874 107.907 385.6C102.049 385.028 96.2301 384.103 90.4033 383.249C89.1502 383.051 87.9178 382.734 86.7224 382.301C84.3016 381.431 83.347 379.95 83.515 377.324C83.5418 376.855 83.603 376.389 83.6983 375.93C84.2319 373.707 84.9525 371.536 85.8518 369.441C86.0657 368.893 86.3482 368.595 86.9897 368.751C87.5742 368.837 88.1634 368.885 88.7538 368.893V368.893ZM80.8422 190.96C79.4981 189.448 78.3602 188.21 77.2834 186.917C75.2692 184.572 73.3851 182.112 71.6399 179.55C71.0337 178.652 70.5218 177.691 70.1126 176.682C69.5865 175.373 69.4848 173.925 69.8224 172.553C70.3415 170.427 71.1108 168.375 72.1134 166.44C75.4965 159.803 78.8032 153.118 81.9648 146.363C82.0693 146.115 82.232 145.897 82.4382 145.729C83.4463 160.735 81.8349 175.624 80.8422 190.96V190.96ZM123.066 83.7509C122.628 84.2018 122.109 84.5612 121.538 84.8088C118.993 86.3761 116.447 87.9094 113.902 89.4088C112.557 89.0483 111.549 88.0452 110.213 87.4575C111.19 85.566 111.919 83.5503 112.382 81.4627C112.543 80.7229 112.871 80.0322 113.339 79.4458C113.807 78.8593 114.403 78.3934 115.078 78.0852C115.989 77.6359 116.925 77.2409 117.88 76.9019C119.097 76.545 120.272 76.0536 121.386 75.4365C122.042 75.029 122.241 75.2798 122.409 75.9224C123.157 78.4565 123.38 81.1229 123.066 83.7509V83.7509Z" fill="white"/>
<path d="M99.9112 69.9354C100.045 69.9204 100.181 69.9422 100.305 69.9986C100.428 70.0551 100.535 70.1441 100.614 70.2567C100.712 70.379 100.766 70.5328 100.766 70.6916C100.766 70.8504 100.712 71.0042 100.614 71.1265C100.375 71.3814 100.12 71.6197 99.8501 71.8396C99.262 72.3333 98.6511 72.8035 98.0936 73.3285C94.5807 76.6041 93.8476 80.6007 95.2222 85.1301C95.3291 85.4749 95.4819 85.8119 95.5659 86.1645C95.6058 86.3195 95.59 86.484 95.5212 86.628C95.4525 86.7719 95.3355 86.8856 95.1917 86.9481C95.0562 87.0201 94.9006 87.0415 94.7515 87.0086C94.6025 86.9757 94.4692 86.8906 94.3745 86.7679C94.1063 86.4536 93.9106 86.0813 93.8018 85.6786C92.2744 81.8075 92.8625 75.8989 96.4823 72.5606C97.2276 71.8107 98.0266 71.1191 98.8726 70.4918C99.1744 70.2298 99.5291 70.0398 99.9112 69.9354V69.9354Z" fill="#B60000"/>
<path d="M121.454 64.0111C121.874 63.9922 122.293 64.0583 122.687 64.2056C123.081 64.353 123.443 64.5787 123.753 64.8698C124.062 65.161 124.312 65.5119 124.489 65.9024C124.666 66.2929 124.766 66.7154 124.784 67.1457C124.784 67.6002 124.608 67.9293 124.12 68.0547C124.016 68.0724 123.911 68.0681 123.809 68.0421C123.707 68.016 123.612 67.9689 123.529 67.9035C123.446 67.8381 123.377 67.7558 123.326 67.6618C123.275 67.5679 123.244 67.4642 123.234 67.3572C123.196 67.2059 123.15 67.0567 123.096 66.9106C122.6 65.5627 122.081 65.2963 120.805 65.884C119.76 66.4096 118.674 66.8472 117.56 67.1927C117.225 67.3464 116.855 67.4033 116.491 67.3572C116.338 67.3317 116.198 67.2546 116.093 67.1382C115.988 67.0218 115.923 66.8728 115.91 66.7147C115.91 66.4325 115.987 66.1191 116.223 66.0642C118.171 65.6019 119.828 64.3794 121.454 64.0111V64.0111Z" fill="#B60000"/>
<path d="M110.503 67.4826C110.946 67.4826 111.366 67.5923 111.443 68.1095C111.519 68.6267 111.16 68.9323 110.679 69.0185C110.198 69.1047 109.671 69.238 109.274 68.7678C109.187 68.6731 109.134 68.5513 109.123 68.4221C109.112 68.2928 109.144 68.1634 109.213 68.0547C109.503 67.5375 110.038 67.5688 110.503 67.4826Z" fill="#B60000"/>
<path d="M63.9041 153.8C64.3088 153.8 64.5914 153.98 64.6296 154.396C64.638 154.471 64.6316 154.548 64.6107 154.621C64.5898 154.695 64.5548 154.763 64.5079 154.822C64.4609 154.881 64.4029 154.93 64.3372 154.966C64.2716 155.002 64.1996 155.024 64.1255 155.03C64.0437 155.054 63.958 155.059 63.8739 155.046C63.7899 155.034 63.7094 155.003 63.6376 154.956C63.5657 154.91 63.5041 154.849 63.4566 154.776C63.4091 154.704 63.3769 154.623 63.3619 154.537C63.255 154.129 63.5222 153.886 63.9041 153.8Z" fill="#B60000"/>
<path d="M77.3981 122.768C76.9857 122.698 76.749 122.525 76.7414 122.18C76.7347 122.091 76.7486 122.001 76.7817 121.917C76.8149 121.834 76.8665 121.76 76.9324 121.701C76.9983 121.641 77.0768 121.599 77.1616 121.576C77.2464 121.553 77.3352 121.551 77.421 121.569C77.7723 121.569 77.8945 121.875 77.8792 122.212C77.8818 122.35 77.8338 122.483 77.7446 122.586C77.6555 122.69 77.5318 122.754 77.3981 122.768Z" fill="#B60000"/>
<path d="M101.66 105.599C101.615 104.451 101.805 103.307 102.22 102.24C102.634 101.174 103.263 100.209 104.065 99.4079C105.406 98.0585 106.832 96.8019 108.334 95.6465C108.58 95.4648 108.835 95.2973 109.098 95.145C109.245 95.0345 109.427 94.9859 109.607 95.0092C109.788 95.0325 109.953 95.126 110.068 95.2704C110.138 95.3476 110.192 95.4386 110.227 95.5378C110.262 95.6371 110.277 95.7425 110.272 95.8479C110.266 95.9533 110.239 96.0564 110.194 96.1511C110.148 96.2457 110.085 96.33 110.007 96.3988C109.752 96.6521 109.479 96.8853 109.19 97.0962C108.098 98.0287 106.967 98.9221 105.921 99.9095C103.057 102.621 102.416 105.998 104.004 109.689C104.127 109.971 104.302 110.238 104.401 110.528C104.461 110.674 104.469 110.837 104.426 110.989C104.383 111.141 104.291 111.274 104.165 111.365C104.039 111.456 103.886 111.501 103.732 111.491C103.578 111.481 103.431 111.418 103.317 111.311C102.965 111.006 102.701 110.607 102.553 110.159C101.944 108.721 101.639 107.167 101.66 105.599Z" fill="black"/>
<path d="M140.982 92.1201C140.856 92.138 140.729 92.1213 140.612 92.0717C140.495 92.0221 140.393 91.9415 140.317 91.838C140.224 91.7122 140.177 91.5563 140.186 91.3984C140.194 91.2404 140.257 91.0907 140.363 90.976C140.521 90.7761 140.697 90.5924 140.89 90.4275L146.022 85.7805C146.163 85.6329 146.319 85.5015 146.488 85.3887C146.613 85.2975 146.765 85.2553 146.918 85.2697C147.071 85.284 147.213 85.3541 147.32 85.4671C147.434 85.5742 147.509 85.718 147.532 85.8747C147.556 86.0314 147.527 86.1916 147.45 86.3291C147.327 86.5547 147.175 86.7629 146.999 86.9481C145.365 88.5781 143.685 90.161 141.913 91.65C141.663 91.9099 141.335 92.0755 140.982 92.1201V92.1201Z" fill="black"/>
<path d="M109.48 113.976C109.472 114.218 109.375 114.448 109.207 114.618C109.04 114.788 108.815 114.887 108.579 114.893C108.1 114.855 107.635 114.713 107.215 114.475C106.795 114.237 106.429 113.909 106.143 113.513C106.076 113.403 106.04 113.275 106.04 113.145C106.04 113.015 106.076 112.887 106.143 112.777C106.199 112.656 106.295 112.56 106.414 112.506C106.533 112.451 106.667 112.442 106.792 112.479C107.624 112.816 108.38 113.341 109.251 113.607C109.365 113.639 109.411 113.858 109.48 113.976V113.976Z" fill="black"/>
<path opacity="0.3" d="M147.357 89.8711C147.352 89.9539 147.319 90.0323 147.263 90.0923C147.207 90.1524 147.133 90.1903 147.052 90.1994C147.066 90.1198 147.102 90.0461 147.156 89.9876C147.21 89.9291 147.28 89.8886 147.357 89.8711V89.8711Z" fill="#B60000"/>
<path d="M227.444 379.385C227.353 381.117 227.238 382.52 227.055 383.915C226.872 385.31 226.291 386.219 224.833 386.462C224.069 386.587 223.305 386.744 222.542 386.807C221.602 386.912 220.651 386.776 219.775 386.41C218.9 386.045 218.126 385.462 217.524 384.714C216.725 383.704 216.034 382.608 215.462 381.446C214.658 379.763 213.731 378.144 212.69 376.604C212.448 376.206 212.122 375.87 211.736 375.619C211.35 375.368 210.914 375.209 210.46 375.154C209.751 375.054 209.098 374.705 208.612 374.166C207.463 373.051 206.609 371.654 206.13 370.107C205.747 368.963 205.743 367.722 206.118 366.575C206.494 365.428 207.228 364.441 208.207 363.768C208.408 363.607 208.629 363.476 208.864 363.376C209.758 363.023 210.392 363.423 210.529 364.418C210.821 366.495 211.706 368.436 213.072 369.998C214.042 371.231 215.428 372.046 216.956 372.28C218.484 372.514 220.041 372.149 221.32 371.259C222.893 370.178 224.497 370.382 225.764 372.2C226.15 372.751 226.446 373.362 226.642 374.01C227.168 375.751 227.439 377.563 227.444 379.385V379.385Z" fill="white"/>
<path d="M267.407 54.8739C267.285 54.6429 267.093 54.459 266.861 54.3501C266.628 54.2412 266.366 54.2133 266.117 54.2705C263.826 54.3724 261.748 53.4869 259.671 52.6327C259.133 52.451 258.686 52.0599 258.426 51.5435C258.205 51.0811 258.014 50.4699 257.365 50.6971C256.716 50.9244 256.769 51.5826 256.807 52.1625C256.807 52.2644 256.807 52.3663 256.876 52.6327C256.945 52.8992 256.83 53.4164 256.762 53.8709C256.484 56.3099 255.675 58.6535 254.394 60.7277C254.222 60.9224 254.117 61.1702 254.096 61.4325C254.076 61.6948 254.14 61.9567 254.28 62.1774C254.423 62.3611 254.618 62.494 254.839 62.5573C255.06 62.6206 255.294 62.611 255.509 62.53C256.577 62.2808 257.685 62.2737 258.756 62.5092C259.827 62.7447 260.835 63.2172 261.71 63.8936C261.875 64.019 262.058 64.1169 262.252 64.1835C262.377 64.2508 262.515 64.2887 262.656 64.2943C262.797 64.3 262.937 64.2733 263.067 64.2162C263.196 64.1592 263.312 64.0731 263.405 63.9645C263.498 63.8558 263.566 63.7271 263.604 63.588C263.712 63.2947 263.786 62.9897 263.826 62.6789C264.128 60.2302 265.223 57.9565 266.934 56.2218C267.277 55.8535 267.697 55.4852 267.407 54.8739ZM262.191 62.1539C260.459 61.059 258.441 60.5365 256.41 60.6571C257.371 58.5271 258.012 56.2603 258.312 53.9336C260.383 54.8391 262.541 55.5219 264.75 55.971C263.514 57.8422 262.645 59.9422 262.191 62.1539Z" fill="#B60000"/>
<path d="M66.4393 95.4584C66.2961 95.3066 66.111 95.2035 65.909 95.1629C65.7069 95.1222 65.4976 95.1461 65.3091 95.2312C64.2929 95.5739 63.2191 95.6992 62.1539 95.5995C61.0887 95.4997 60.0547 95.177 59.1157 94.6513C58.3902 94.2595 57.871 94.5729 57.8786 95.3566C57.9662 97.7648 57.3692 100.147 56.1603 102.213C55.6258 103.091 56.0687 103.734 57.0996 103.694C57.6125 103.648 58.1224 103.572 58.627 103.467C60.2402 103.592 61.7851 104.187 63.0792 105.183C64.1101 105.904 64.7669 105.536 64.6905 104.274C64.4448 101.607 65.0333 98.9277 66.3706 96.626C66.5053 96.4661 66.5849 96.2651 66.5973 96.0542C66.6097 95.8432 66.5542 95.6339 66.4393 95.4584V95.4584ZM62.957 103.021C61.5468 102.239 59.9771 101.81 58.375 101.767C58.8544 100.365 59.1722 98.9107 59.3219 97.4332C59.3219 96.9944 59.5205 96.7044 59.994 96.8768C61.3338 97.2803 62.7317 97.442 64.1254 97.3548C63.4838 99.1792 63.0906 101.086 62.957 103.021V103.021Z" fill="#B60000"/>
<path d="M273.616 1.67285C272.642 1.70157 271.718 2.12487 271.047 2.85024C270.376 3.57561 270.012 4.54407 270.034 5.54401C270.078 6.489 270.465 7.38291 271.12 8.04894C271.774 8.71498 272.649 9.10466 273.57 9.1409C274.545 9.1307 275.478 8.72865 276.167 8.02104C276.857 7.31342 277.249 6.35661 277.259 5.35594C277.217 4.38357 276.818 3.46348 276.142 2.78034C275.467 2.0972 274.564 1.70157 273.616 1.67285V1.67285ZM273.715 7.40123C273.449 7.41606 273.182 7.37531 272.931 7.28145C272.68 7.18759 272.45 7.04256 272.255 6.8551C272.061 6.66764 271.905 6.44164 271.797 6.19072C271.69 5.9398 271.633 5.66916 271.63 5.39512C271.635 5.13478 271.691 4.87802 271.793 4.63976C271.895 4.4015 272.043 4.18646 272.227 4.00714C272.411 3.82781 272.628 3.68775 272.865 3.5951C273.102 3.50244 273.355 3.45903 273.608 3.46738C273.862 3.44518 274.118 3.47835 274.359 3.56469C274.6 3.65104 274.82 3.78862 275.005 3.96841C275.191 4.14821 275.337 4.36616 275.434 4.60798C275.532 4.8498 275.578 5.11003 275.571 5.37161C275.588 5.63203 275.552 5.89319 275.466 6.13889C275.381 6.3846 275.247 6.6096 275.073 6.79992C274.899 6.99024 274.688 7.14183 274.455 7.24527C274.221 7.34871 273.97 7.4018 273.715 7.40123V7.40123ZM100.507 33.3082C100.048 33.3046 99.592 33.3939 99.1664 33.5709C98.7407 33.748 98.3531 34.0093 98.0258 34.3401C97.6986 34.6708 97.438 35.0644 97.259 35.4985C97.08 35.9325 96.986 36.3985 96.9825 36.8699C96.979 37.3412 97.066 37.8086 97.2385 38.2454C97.4111 38.6822 97.6658 39.0799 97.9881 39.4157C98.3104 39.7516 98.694 40.019 99.117 40.2026C99.54 40.3863 99.9941 40.4827 100.453 40.4863C101.377 40.4865 102.264 40.1148 102.924 39.451C103.584 38.7872 103.964 37.8844 103.982 36.9365C103.968 35.9892 103.6 35.0836 102.953 34.4079C102.306 33.7322 101.43 33.3384 100.507 33.3082V33.3082ZM100.461 38.7937C99.9783 38.7724 99.521 38.5656 99.18 38.2142C98.839 37.8629 98.6393 37.3928 98.6206 36.8973C98.6359 36.4035 98.8339 35.9342 99.1744 35.5848C99.5148 35.2354 99.9722 35.0323 100.453 35.0166C100.69 35.0061 100.925 35.044 101.147 35.1281C101.369 35.2122 101.572 35.3409 101.745 35.5065C101.918 35.6721 102.057 35.8714 102.153 36.0927C102.25 36.314 102.303 36.5529 102.309 36.7954C102.329 37.0566 102.296 37.3193 102.212 37.5666C102.127 37.8138 101.993 38.0403 101.819 38.2314C101.644 38.4225 101.432 38.574 101.197 38.6762C100.962 38.7784 100.709 38.8291 100.453 38.825L100.461 38.7937Z" fill="#B60000"/>
<path d="M236.784 308.357C236.272 310.088 235.669 312.063 234.058 313.482C233.855 313.632 233.619 313.729 233.37 313.764C233.221 313.8 233.065 313.783 232.926 313.716C232.787 313.649 232.675 313.536 232.607 313.395C232.539 313.285 232.511 313.153 232.526 313.024C232.541 312.894 232.599 312.773 232.691 312.682C233.991 311.369 234.918 309.716 235.371 307.902C235.388 307.798 235.426 307.699 235.482 307.611C235.537 307.522 235.609 307.446 235.694 307.387C235.779 307.327 235.875 307.286 235.975 307.266C236.076 307.245 236.179 307.246 236.28 307.267C236.662 307.354 236.845 307.675 236.784 308.357V308.357Z" fill="black"/>
<path d="M207.177 52.2801C207.179 52.4603 207.112 52.6342 206.991 52.7646C206.869 52.8949 206.703 52.9714 206.527 52.9775C206.44 52.9867 206.351 52.9763 206.267 52.9469C206.184 52.9175 206.107 52.8699 206.044 52.8073C205.98 52.7447 205.93 52.6687 205.897 52.5845C205.865 52.5002 205.85 52.4097 205.855 52.3193C205.841 52.2291 205.847 52.1368 205.873 52.0494C205.899 51.962 205.943 51.8817 206.003 51.8145C206.064 51.7474 206.138 51.6952 206.221 51.6618C206.304 51.6284 206.393 51.6147 206.482 51.6218C206.57 51.6154 206.659 51.6276 206.742 51.6577C206.826 51.6878 206.903 51.7351 206.968 51.7968C207.033 51.8585 207.085 51.9332 207.121 52.0163C207.157 52.0994 207.176 52.1892 207.177 52.2801V52.2801Z" fill="#B60000"/>
<path opacity="0.3" d="M149.886 142.422C148.03 141.881 146.35 141.285 144.41 141.756C144.586 140.439 145.082 139.303 145.082 138.08C145.149 137.56 145.149 137.033 145.082 136.513C144.922 135.824 145.082 135.573 145.846 135.729C147.419 136.082 149.008 136.513 150.871 135.729C150.512 138.112 149.619 140.11 149.886 142.422V142.422Z" fill="#B60000"/>
<path opacity="0.3" d="M167.855 92.4336C167.865 92.6792 167.827 92.9244 167.743 93.1546C167.658 93.3847 167.53 93.595 167.364 93.7728C167.199 93.9506 167 94.0923 166.78 94.1894C166.56 94.2865 166.323 94.337 166.083 94.3378C165.6 94.3505 165.131 94.1665 164.779 93.8259C164.427 93.4854 164.221 93.0159 164.205 92.5198C164.21 92.0248 164.398 91.5503 164.731 91.1924C165.064 90.8344 165.518 90.6198 165.999 90.592C166.483 90.5857 166.949 90.7757 167.297 91.1207C167.644 91.4656 167.845 91.9375 167.855 92.4336V92.4336Z" fill="#B60000"/>
<path opacity="0.3" d="M261.351 170.64C260.217 169.632 258.821 168.981 257.334 168.768C258.434 167.392 259.268 165.815 259.793 164.121C261.359 164.826 262.382 166.33 264.192 166.714C263.037 167.85 262.077 169.177 261.351 170.64Z" fill="#B60000"/>
<path opacity="0.3" d="M288.194 129.837C288.387 129.841 288.576 129.886 288.751 129.969C288.926 130.051 289.082 130.169 289.211 130.316C289.34 130.463 289.438 130.635 289.499 130.822C289.561 131.009 289.585 131.207 289.569 131.404C289.577 131.598 289.545 131.791 289.476 131.972C289.408 132.152 289.303 132.317 289.17 132.454C289.037 132.592 288.877 132.7 288.702 132.771C288.526 132.842 288.338 132.876 288.149 132.869C287.951 132.868 287.756 132.827 287.574 132.747C287.393 132.667 287.229 132.55 287.092 132.404C286.955 132.258 286.849 132.085 286.778 131.896C286.708 131.706 286.675 131.504 286.682 131.302C286.684 131.103 286.725 130.906 286.803 130.723C286.881 130.541 286.993 130.376 287.135 130.239C287.276 130.102 287.442 129.996 287.625 129.927C287.807 129.858 288 129.827 288.194 129.837V129.837Z" fill="#B60000"/>
<path d="M193.079 144.663C192.896 142.5 193.759 140.251 194.477 137.979C194.629 137.508 194.927 137.077 195.485 137.289C196.042 137.501 196.012 138.018 195.889 138.496C195.691 139.279 195.469 139.992 195.24 140.737C194.409 143.443 194.43 146.35 195.301 149.043C195.469 149.608 195.912 150.242 195.126 150.689C194.614 150.963 194.141 150.572 193.759 149.584C193.238 148.001 193.008 146.332 193.079 144.663V144.663Z" fill="black"/>
<path d="M202.251 163.58C202.267 163.739 202.235 163.899 202.16 164.039C202.085 164.179 201.97 164.292 201.831 164.364C201.693 164.435 201.535 164.453 201.386 164.416C201.236 164.378 201.104 164.288 201.014 164.16C200.851 163.962 200.705 163.749 200.578 163.525C199.922 162.412 199.267 161.3 198.616 160.187C198.457 159.922 198.314 159.647 198.188 159.364C198.108 159.2 198.094 159.009 198.15 158.835C198.206 158.66 198.326 158.515 198.486 158.431C198.547 158.382 198.617 158.347 198.692 158.326C198.767 158.305 198.845 158.3 198.922 158.311C198.999 158.322 199.073 158.349 199.14 158.39C199.207 158.431 199.265 158.485 199.311 158.549C200.481 160.048 201.461 161.694 202.228 163.447C202.239 163.49 202.246 163.535 202.251 163.58V163.58Z" fill="black"/>
<path d="M227.643 151.206C228.033 151.329 228.447 151.341 228.843 151.24C229.238 151.139 229.6 150.93 229.888 150.634C230.232 150.258 230.652 150.101 231.072 150.525C231.492 150.948 231.194 151.387 230.912 151.763C230.364 152.336 229.651 152.713 228.879 152.84C228.106 152.967 227.315 152.837 226.62 152.468C226.49 152.39 226.388 152.273 226.328 152.132C226.267 151.991 226.252 151.835 226.284 151.684C226.309 151.529 226.387 151.387 226.505 151.285C226.622 151.183 226.771 151.128 226.925 151.128C227.166 151.132 227.406 151.158 227.643 151.206V151.206Z" fill="black"/>
<path d="M233.966 112.808C233.477 112.808 232.904 112.886 232.813 112.158C232.744 111.617 233.363 111.202 234.126 111.272C234.638 111.327 235.142 111.46 235.211 112.119C235.257 112.651 234.859 112.863 233.966 112.808Z" fill="black"/>
<path d="M88.8227 231.584V244.083C88.8343 244.499 88.819 244.915 88.7769 245.329C88.7526 245.519 88.6616 245.693 88.5209 245.818C88.3802 245.944 88.1996 246.012 88.0132 246.011C87.9212 246.02 87.8284 246.011 87.7399 245.984C87.6515 245.956 87.5693 245.911 87.4982 245.85C87.4271 245.789 87.3685 245.715 87.3258 245.631C87.2831 245.547 87.2571 245.455 87.2495 245.36C87.1884 245.001 87.1577 244.636 87.1579 244.271V219.116C87.1541 218.7 87.1771 218.284 87.2266 217.87C87.2289 217.775 87.2516 217.682 87.2933 217.597C87.3349 217.512 87.3944 217.438 87.4675 217.379C87.5405 217.321 87.6253 217.28 87.7157 217.259C87.8061 217.238 87.8999 217.238 87.9903 217.259C88.1442 217.26 88.292 217.321 88.405 217.428C88.518 217.535 88.5879 217.682 88.6012 217.839C88.6434 218.098 88.6664 218.36 88.6699 218.623C88.7972 222.943 88.8481 227.263 88.8227 231.584V231.584Z" fill="black"/>
<path d="M98.9261 339.969C98.4526 343.892 97.9766 347.81 97.498 351.723C97.3758 352.757 97.2231 353.784 97.0704 354.811C96.994 355.32 96.7802 355.743 96.1998 355.673C95.6194 355.602 95.4972 355.116 95.5507 354.623C95.7569 352.656 95.963 350.704 96.2227 348.737C96.6351 345.642 97.1467 342.562 97.3835 339.451C97.3835 339.295 97.3835 339.138 97.4293 338.981C97.5209 338.55 97.7119 338.151 98.193 338.198C98.6741 338.245 98.9032 338.683 98.8955 339.201C98.8955 339.459 98.8955 339.718 98.8574 339.984L98.9261 339.969Z" fill="black"/>
<path d="M88.0285 261.636V265.217C88.0285 265.727 88.1049 266.369 87.4023 266.44C86.6997 266.51 86.6386 265.79 86.5164 265.257C86.4675 264.998 86.4419 264.736 86.4401 264.473C86.379 262.396 86.3255 260.328 86.2721 258.251C86.2606 258.042 86.2606 257.833 86.2721 257.624C86.3179 257.13 86.4324 256.66 87.0357 256.699C87.639 256.739 87.6543 257.146 87.6772 257.593C87.7536 258.941 87.8299 260.281 87.8987 261.628L88.0285 261.636Z" fill="black"/>
<path d="M94.0232 361.942C94.1072 361.33 94.1988 360.727 94.2828 360.116C94.3516 359.661 94.573 359.332 95.0465 359.332C95.52 359.332 95.8102 359.81 95.7491 360.312C95.6878 361.027 95.5884 361.739 95.4513 362.443C95.3596 362.921 95.1 363.337 94.5272 363.227C93.9545 363.117 94.0003 362.678 94.0079 362.247L94.0232 361.942Z" fill="black"/>
<path d="M87.5244 122.314C87.4728 118.458 88.0114 114.619 89.1205 110.935C89.6782 109.043 90.5042 107.245 91.5719 105.599C91.7614 105.292 91.9871 105.01 92.2439 104.76C92.3456 104.679 92.4705 104.636 92.599 104.636C92.7276 104.636 92.8525 104.679 92.9541 104.76C93.0945 104.826 93.2068 104.941 93.27 105.085C93.3333 105.23 93.3432 105.393 93.2978 105.544C93.224 105.793 93.116 106.031 92.977 106.249C90.7471 109.674 89.9224 113.576 89.4336 117.565C89.1741 120.257 89.0746 122.963 89.1358 125.668V126.914C89.1358 127.329 89.0136 127.893 88.4332 127.932C87.8528 127.971 87.6695 127.548 87.6008 127.031C87.555 126.365 87.5244 125.683 87.5168 125.009C87.5092 124.077 87.5244 123.191 87.5244 122.314V122.314Z" fill="black"/>
<path d="M89.8153 137.884C89.8612 138.668 89.9222 139.452 89.9528 140.235C89.991 140.647 89.991 141.062 89.9528 141.474C89.9632 141.577 89.9523 141.682 89.9208 141.781C89.8892 141.88 89.8378 141.971 89.7698 142.049C89.7017 142.126 89.6186 142.188 89.5259 142.23C89.4331 142.272 89.3327 142.294 89.2311 142.294C89.1296 142.294 89.0292 142.272 88.9364 142.23C88.8436 142.188 88.7605 142.126 88.6925 142.049C88.6245 141.971 88.573 141.88 88.5415 141.781C88.51 141.682 88.4991 141.577 88.5095 141.474C88.4255 140.494 88.3491 139.507 88.3262 138.519V134.601C88.3262 134.084 88.4865 133.606 89.0364 133.574C89.5862 133.543 89.8001 134.076 89.8001 134.64V137.916L89.8153 137.884Z" fill="black"/>
<path d="M130.237 170.899C130.535 170.948 130.803 171.113 130.985 171.359C131.167 171.606 131.249 171.916 131.214 172.223C131.212 172.364 131.181 172.503 131.123 172.631C131.066 172.759 130.983 172.873 130.881 172.967C130.778 173.06 130.658 173.131 130.527 173.174C130.397 173.218 130.259 173.233 130.122 173.219C129.823 173.174 129.553 173.011 129.369 172.765C129.185 172.52 129.102 172.21 129.137 171.902C129.155 171.62 129.28 171.357 129.486 171.169C129.692 170.981 129.962 170.884 130.237 170.899V170.899Z" fill="black"/>
<path d="M125.54 127.031C125.54 127.162 125.513 127.291 125.46 127.41C125.407 127.529 125.33 127.635 125.234 127.721C125.137 127.806 125.024 127.869 124.901 127.906C124.779 127.942 124.65 127.951 124.524 127.932C124.219 127.911 123.931 127.779 123.713 127.559C123.494 127.339 123.36 127.046 123.333 126.733C123.342 126.592 123.378 126.453 123.439 126.326C123.5 126.198 123.586 126.084 123.69 125.991C123.795 125.898 123.916 125.827 124.047 125.782C124.179 125.737 124.318 125.72 124.456 125.73C124.761 125.773 125.04 125.929 125.24 126.168C125.44 126.408 125.547 126.715 125.54 127.031ZM132.344 184.017C132.351 184.301 132.251 184.577 132.064 184.787C131.878 184.997 131.62 185.126 131.344 185.146C131.207 185.162 131.069 185.149 130.938 185.109C130.806 185.069 130.683 185.002 130.578 184.912C130.472 184.822 130.385 184.711 130.323 184.585C130.26 184.46 130.223 184.322 130.214 184.182C130.2 184.03 130.217 183.876 130.263 183.731C130.308 183.586 130.382 183.452 130.48 183.337C130.578 183.222 130.698 183.128 130.832 183.062C130.966 182.996 131.111 182.958 131.26 182.951C131.535 182.967 131.795 183.083 131.994 183.278C132.193 183.474 132.317 183.736 132.344 184.017V184.017Z" fill="black"/>
<path d="M128.587 158.886C128.448 158.89 128.309 158.865 128.18 158.812C128.05 158.76 127.933 158.68 127.835 158.578C127.737 158.477 127.66 158.356 127.609 158.223C127.559 158.09 127.535 157.947 127.541 157.805C127.541 157.516 127.644 157.237 127.832 157.022C128.019 156.807 128.277 156.67 128.556 156.637C128.695 156.623 128.834 156.638 128.967 156.68C129.1 156.722 129.223 156.792 129.329 156.884C129.435 156.976 129.522 157.089 129.585 157.216C129.648 157.343 129.685 157.482 129.694 157.624C129.692 157.937 129.579 158.239 129.375 158.471C129.17 158.704 128.89 158.851 128.587 158.886V158.886Z" fill="black"/>
<path d="M127.946 142.171C127.945 142.313 127.916 142.452 127.859 142.582C127.803 142.711 127.72 142.826 127.617 142.92C127.514 143.014 127.393 143.085 127.261 143.127C127.129 143.169 126.991 143.183 126.853 143.166C126.578 143.146 126.32 143.025 126.125 142.825C125.93 142.625 125.812 142.359 125.792 142.077C125.815 141.796 125.943 141.534 126.15 141.348C126.356 141.161 126.624 141.063 126.899 141.074C127.174 141.095 127.432 141.217 127.625 141.419C127.817 141.621 127.931 141.889 127.946 142.171V142.171Z" fill="black"/>
<path d="M87.0586 376.4C87.0884 375.742 87.2387 375.096 87.5015 374.496C87.5364 374.399 87.5895 374.31 87.658 374.234C87.7264 374.158 87.8088 374.097 87.9004 374.054C87.9919 374.011 88.0909 373.987 88.1915 373.984C88.2921 373.98 88.3924 373.997 88.4867 374.033C88.8914 374.198 88.9372 374.558 88.8761 374.942C88.7526 375.391 88.6682 375.85 88.6241 376.314C88.583 376.808 88.671 377.304 88.879 377.752C89.0871 378.2 89.4077 378.582 89.8078 378.86C90.2737 379.174 90.6708 379.534 90.2737 380.106C89.8765 380.678 89.3725 380.475 88.899 380.208C88.2197 379.751 87.7152 379.068 87.471 378.273C87.2167 377.682 87.0766 377.046 87.0586 376.4V376.4Z" fill="black"/>
<path d="M115.467 384.095C114.971 384.095 114.65 383.931 114.528 383.539C114.497 383.451 114.485 383.359 114.491 383.266C114.498 383.174 114.523 383.083 114.566 383.002C114.608 382.92 114.667 382.848 114.738 382.791C114.809 382.733 114.891 382.692 114.978 382.669C115.987 382.313 116.93 381.783 117.766 381.102C117.888 381.003 118.041 380.952 118.197 380.959C118.352 380.967 118.5 381.031 118.613 381.141C118.684 381.198 118.743 381.269 118.787 381.35C118.831 381.431 118.858 381.52 118.868 381.612C118.878 381.703 118.87 381.796 118.845 381.885C118.819 381.974 118.777 382.056 118.72 382.128C117.88 383.138 116.735 383.83 115.467 384.095Z" fill="black"/>
</svg>
