<svg width="227" height="76" viewBox="0 0 227 76" fill="none" xmlns="http://www.w3.org/2000/svg">
<path d="M89.4287 33.1517C89.4287 34.3744 89.1397 35.5278 88.5615 36.612C87.9834 37.6962 87.0584 38.5844 85.7865 39.2764C84.5146 39.9454 82.8842 40.2799 80.8955 40.2799H76.5248V50.0379H72.5703V25.9889H80.8955C82.7455 25.9889 84.3064 26.3119 85.5783 26.9578C86.8734 27.5807 87.8331 28.4342 88.4575 29.5184C89.105 30.6027 89.4287 31.8138 89.4287 33.1517ZM80.8955 37.0618C82.3986 37.0618 83.5202 36.7273 84.2602 36.0584C85.0002 35.3663 85.3702 34.3974 85.3702 33.1517C85.3702 30.5219 83.8786 29.207 80.8955 29.207H76.5248V37.0618H80.8955Z" fill="white"/>
<path d="M97.5016 24.4318V50.0379H93.5471V24.4318H97.5016Z" fill="white"/>
<path d="M101.722 40.4183C101.722 38.5036 102.115 36.8081 102.902 35.3317C103.711 33.8553 104.798 32.7134 106.162 31.906C107.55 31.0756 109.076 30.6603 110.741 30.6603C112.244 30.6603 113.551 30.9602 114.661 31.56C115.794 32.1367 116.696 32.8634 117.366 33.74V30.9717H121.356V50.0379H117.366V47.2005C116.696 48.1001 115.782 48.8499 114.626 49.4496C113.47 50.0494 112.152 50.3493 110.672 50.3493C109.03 50.3493 107.527 49.9341 106.162 49.1036C104.798 48.2501 103.711 47.0736 102.902 45.5741C102.115 44.0516 101.722 42.333 101.722 40.4183ZM117.366 40.4875C117.366 39.1726 117.089 38.0307 116.534 37.0618C116.002 36.093 115.297 35.3548 114.418 34.8473C113.539 34.3398 112.591 34.086 111.574 34.086C110.556 34.086 109.608 34.3398 108.729 34.8473C107.85 35.3317 107.133 36.0584 106.578 37.0272C106.047 37.973 105.781 39.1034 105.781 40.4183C105.781 41.7332 106.047 42.8866 106.578 43.8786C107.133 44.8705 107.85 45.6318 108.729 46.1624C109.631 46.6699 110.579 46.9236 111.574 46.9236C112.591 46.9236 113.539 46.6699 114.418 46.1624C115.297 45.6549 116.002 44.9167 116.534 43.9478C117.089 42.9558 117.366 41.8024 117.366 40.4875Z" fill="white"/>
<path d="M144.102 30.9717L132.377 59H128.284L132.169 49.7265L124.642 30.9717H129.047L134.424 45.5049L140.009 30.9717H144.102Z" fill="white"/>
<path d="M155.307 25.9889C157.874 25.9889 160.117 26.4849 162.037 27.4769C163.979 28.4457 165.471 29.8529 166.511 31.6984C167.575 33.5208 168.107 35.6547 168.107 38.0999C168.107 40.5452 167.575 42.6675 166.511 44.4668C165.471 46.2662 163.979 47.6503 162.037 48.6192C160.117 49.565 157.874 50.0379 155.307 50.0379H147.433V25.9889H155.307ZM155.307 46.8198C158.128 46.8198 160.291 46.0586 161.794 44.536C163.297 43.0135 164.048 40.8681 164.048 38.0999C164.048 35.3086 163.297 33.1287 161.794 31.56C160.291 29.9913 158.128 29.207 155.307 29.207H151.387V46.8198H155.307Z" fill="white"/>
<path d="M171.055 40.4183C171.055 38.5036 171.448 36.8081 172.234 35.3317C173.044 33.8553 174.131 32.7134 175.495 31.906C176.883 31.0756 178.409 30.6603 180.074 30.6603C181.577 30.6603 182.884 30.9602 183.994 31.56C185.127 32.1367 186.029 32.8634 186.699 33.74V30.9717H190.688V50.0379H186.699V47.2005C186.029 48.1001 185.115 48.8499 183.959 49.4496C182.803 50.0494 181.484 50.3493 180.004 50.3493C178.363 50.3493 176.859 49.9341 175.495 49.1036C174.131 48.2501 173.044 47.0736 172.234 45.5741C171.448 44.0516 171.055 42.333 171.055 40.4183ZM186.699 40.4875C186.699 39.1726 186.422 38.0307 185.867 37.0618C185.335 36.093 184.63 35.3548 183.751 34.8473C182.872 34.3398 181.924 34.086 180.906 34.086C179.889 34.086 178.941 34.3398 178.062 34.8473C177.183 35.3317 176.466 36.0584 175.911 37.0272C175.379 37.973 175.113 39.1034 175.113 40.4183C175.113 41.7332 175.379 42.8866 175.911 43.8786C176.466 44.8705 177.183 45.6318 178.062 46.1624C178.964 46.6699 179.912 46.9236 180.906 46.9236C181.924 46.9236 182.872 46.6699 183.751 46.1624C184.63 45.6549 185.335 44.9167 185.867 43.9478C186.422 42.9558 186.699 41.8024 186.699 40.4875Z" fill="white"/>
<path d="M200.843 34.1898V44.7437C200.843 45.4588 201.005 45.9778 201.328 46.3008C201.675 46.6007 202.253 46.7506 203.063 46.7506H205.491V50.0379H202.369C200.588 50.0379 199.224 49.6226 198.276 48.7922C197.328 47.9617 196.854 46.6122 196.854 44.7437V34.1898H194.599V30.9717H196.854V26.2312H200.843V30.9717H205.491V34.1898H200.843Z" fill="white"/>
<path d="M227 40.0377C227 40.7528 226.954 41.3987 226.861 41.9754H212.258C212.373 43.498 212.94 44.7206 213.957 45.6433C214.975 46.5661 216.224 47.0274 217.704 47.0274C219.831 47.0274 221.334 46.1393 222.213 44.363H226.48C225.902 46.1162 224.849 47.558 223.323 48.6884C221.82 49.7957 219.947 50.3493 217.704 50.3493C215.877 50.3493 214.235 49.9456 212.778 49.1382C211.344 48.3077 210.211 47.1543 209.378 45.6779C208.569 44.1785 208.164 42.4483 208.164 40.4875C208.164 38.5267 208.558 36.8081 209.344 35.3317C210.153 33.8322 211.275 32.6788 212.709 31.8714C214.165 31.064 215.83 30.6603 217.704 30.6603C219.507 30.6603 221.115 31.0525 222.525 31.8368C223.936 32.6211 225.034 33.7284 225.821 35.1587C226.607 36.5659 227 38.1922 227 40.0377ZM222.872 38.792C222.849 37.3387 222.329 36.1737 221.311 35.2971C220.294 34.4205 219.033 33.9822 217.53 33.9822C216.166 33.9822 214.998 34.4205 214.027 35.2971C213.055 36.1506 212.477 37.3156 212.292 38.792H222.872Z" fill="white"/>
<g filter="url(#filter0_d_373_11570)">
<path d="M20 55.4545C20.2704 55.4546 20.5409 55.4073 20.6869 55.3127C20.9873 55.1315 30.215 47.8664 31.7172 46.6372C38.3955 41.1766 41.108 37.6544 41.8462 33.5097C42.035 32.4539 42.0179 30.4682 41.8033 29.3256C40.902 24.5191 37.1765 20.9023 32.3095 20.1222C31.3395 19.9646 29.3566 19.9567 28.4038 20.1143C27.0046 20.335 25.6398 20.8471 24.3436 21.6272C23.3736 22.2103 21.6912 23.8099 20.9186 24.8815C20.5667 25.3779 20.2233 25.8822 20.1633 26.0004C20.1032 26.1265 20.0345 26.2211 20.0002 26.2211L20 55.4545Z" fill="white"/>
</g>
<g filter="url(#filter1_d_373_11570)">
<path d="M55.5011 20C55.2307 20 54.9602 20.0472 54.8142 20.1418C54.5138 20.323 45.2861 27.5881 43.7839 28.8173C37.1056 34.2779 34.3931 37.8001 33.6549 41.9448C33.4661 43.0007 33.4832 44.9863 33.6978 46.1289C34.5991 50.9355 38.3246 54.5522 43.1916 55.3323C44.1616 55.4899 46.1445 55.4978 47.0973 55.3402C48.4965 55.1196 49.8613 54.6074 51.1575 53.8273C52.1275 53.2442 53.8099 51.6446 54.5825 50.573C54.9344 50.0766 55.2778 49.5723 55.3378 49.4541C55.3979 49.328 55.4666 49.2335 55.5009 49.2335L55.5011 20Z" fill="white"/>
</g>
<defs>
<filter id="filter0_d_373_11570" x="0" y="0" width="61.9768" height="75.4545" filterUnits="userSpaceOnUse" color-interpolation-filters="sRGB">
<feFlood flood-opacity="0" result="BackgroundImageFix"/>
<feColorMatrix in="SourceAlpha" type="matrix" values="0 0 0 0 0 0 0 0 0 0 0 0 0 0 0 0 0 0 127 0" result="hardAlpha"/>
<feOffset/>
<feGaussianBlur stdDeviation="10"/>
<feComposite in2="hardAlpha" operator="out"/>
<feColorMatrix type="matrix" values="0 0 0 0 0 0 0 0 0 0 0 0 0 0 0 0 0 0 0.25 0"/>
<feBlend mode="normal" in2="BackgroundImageFix" result="effect1_dropShadow_373_11570"/>
<feBlend mode="normal" in="SourceGraphic" in2="effect1_dropShadow_373_11570" result="shape"/>
</filter>
<filter id="filter1_d_373_11570" x="13.5243" y="0" width="61.9768" height="75.4545" filterUnits="userSpaceOnUse" color-interpolation-filters="sRGB">
<feFlood flood-opacity="0" result="BackgroundImageFix"/>
<feColorMatrix in="SourceAlpha" type="matrix" values="0 0 0 0 0 0 0 0 0 0 0 0 0 0 0 0 0 0 127 0" result="hardAlpha"/>
<feOffset/>
<feGaussianBlur stdDeviation="10"/>
<feComposite in2="hardAlpha" operator="out"/>
<feColorMatrix type="matrix" values="0 0 0 0 0 0 0 0 0 0 0 0 0 0 0 0 0 0 0.25 0"/>
<feBlend mode="normal" in2="BackgroundImageFix" result="effect1_dropShadow_373_11570"/>
<feBlend mode="normal" in="SourceGraphic" in2="effect1_dropShadow_373_11570" result="shape"/>
</filter>
</defs>
</svg>
