<svg width="24" height="24" viewBox="0 0 24 24" fill="none" xmlns="http://www.w3.org/2000/svg">
<path d="M13.2421 0.0894547C13.1671 0.13633 10.8843 2.40039 8.17495 5.11445C3.7687 9.53477 3.2437 10.0738 3.22027 10.2238C3.15933 10.6316 3.17339 10.6504 4.69683 12.1738L6.11245 13.5941L4.70152 15.0098C3.48277 16.2379 3.28589 16.4582 3.23902 16.627C3.11714 17.0816 2.95308 16.8941 6.59995 20.5457C8.42339 22.3738 9.97027 23.8973 10.0406 23.9348C10.2046 24.0191 10.5609 24.0191 10.725 23.9348C10.7953 23.8973 13.0781 21.6332 15.8015 18.9051C20.2312 14.4707 20.7562 13.927 20.7796 13.777C20.8406 13.3691 20.8265 13.3504 19.3031 11.827L17.8875 10.4066L19.2984 8.98633C20.3156 7.96445 20.7187 7.52852 20.7421 7.43008C20.7609 7.35039 20.7843 7.26133 20.7937 7.22383C20.8031 7.19102 20.789 7.07383 20.7609 6.96602C20.7187 6.79727 20.3156 6.37539 17.4 3.45508C15.5765 1.62696 14.0296 0.103518 13.9593 0.0660172C13.7765 -0.0277328 13.4109 -0.0183582 13.2421 0.0894547ZM14.7093 11.4707L10.3828 15.7973L7.67808 13.0926L4.9687 10.3832L9.29058 6.06133L13.6171 1.73477L16.3218 4.43946L19.0312 7.14883L14.7093 11.4707ZM14.7093 17.9395L10.3828 22.266L7.67808 19.5613L4.9687 16.852L6.07027 15.7504L7.17183 14.6488L8.61089 16.0879C9.87652 17.3488 10.0781 17.527 10.2328 17.5598C10.6593 17.6348 10.5562 17.7238 13.8281 14.4566L16.8515 11.4379L17.9437 12.5301L19.0312 13.6176L14.7093 17.9395Z" fill="#979797"/>
</svg>
