<svg width="24" height="24" viewBox="0 0 24 24" fill="none" xmlns="http://www.w3.org/2000/svg">
<path d="M4.54685 2.02423C4.19084 2.13377 3.87004 2.41545 3.6979 2.76364L3.58836 2.98664L3.57662 4.40286L3.56489 5.82299H3.00935C2.55945 5.82299 2.42643 5.83473 2.31689 5.89341C1.89437 6.10467 1.89437 6.7541 2.31689 6.96536C2.42643 7.02404 2.55945 7.03578 3.01326 7.03578H3.5688V9.22662V11.4175H2.97414C2.31689 11.4175 2.23473 11.4409 2.07824 11.6757C1.97653 11.8282 1.97653 12.1803 2.07824 12.3329C2.23473 12.5677 2.31689 12.5911 2.97414 12.5911H3.5688V14.782V16.9728H3.01326C2.55945 16.9728 2.42643 16.9845 2.31689 17.0432C1.89437 17.2545 1.89437 17.9039 2.31689 18.1152C2.42643 18.1739 2.55945 18.1856 3.00935 18.1856H3.56489L3.57662 19.6057L3.58836 21.0219L3.6979 21.2449C3.83092 21.5149 4.06565 21.7574 4.33168 21.8944L4.52729 22H12.8016H21.076L21.2716 21.9022C21.522 21.7809 21.7958 21.5071 21.9171 21.2567L22.0149 21.0611V12.0043V2.94752L21.9171 2.7519C21.7958 2.50152 21.522 2.22767 21.2716 2.10639L21.076 2.00858L12.8603 2.00076C8.3417 1.99685 4.60162 2.00858 4.54685 2.02423ZM7.52013 12.0043V20.8459H6.23693C5.14151 20.8459 4.94199 20.8381 4.86765 20.7833C4.78158 20.7246 4.78158 20.7207 4.78158 19.4531V18.1856H5.34103C5.84179 18.1856 5.91221 18.1778 6.04914 18.0956C6.45601 17.8648 6.43645 17.2349 6.01784 17.0354C5.91613 16.9885 5.75964 16.9728 5.33321 16.9728H4.78158V14.782V12.5911H5.36059C5.86527 12.5911 5.95134 12.5833 6.06479 12.5129C6.44036 12.2821 6.44036 11.7265 6.06479 11.4957C5.95134 11.4253 5.86527 11.4175 5.36059 11.4175H4.78158V9.22662V7.03578H5.33321C5.75964 7.03578 5.91613 7.02013 6.01784 6.97318C6.20954 6.8832 6.31909 6.70715 6.33473 6.47242C6.35429 6.21813 6.2604 6.03034 6.04914 5.91297C5.91221 5.83082 5.84179 5.82299 5.34103 5.82299H4.78158V4.55544C4.78158 3.28788 4.78158 3.28396 4.86765 3.22528C4.94199 3.17051 5.14151 3.16269 6.23693 3.16269H7.52013V12.0043ZM20.7199 3.20181L20.8217 3.24093V12.0043V20.7677L20.7199 20.8068C20.6574 20.8302 18.443 20.8459 14.6756 20.8459H8.73292V12.0043V3.16269H14.6756C18.443 3.16269 20.6574 3.17834 20.7199 3.20181Z" fill="#979797"/>
<path d="M11.8355 7.57956C11.3465 7.71258 11.057 7.8808 10.6853 8.24855C10.4154 8.51849 10.3176 8.64369 10.1884 8.91754C9.80896 9.69216 9.81288 10.5998 10.2002 11.3314C10.3488 11.617 13.4708 15.7796 13.7564 16.0769C13.8542 16.1786 14.0342 16.3116 14.1593 16.3703C14.3628 16.472 14.4254 16.4838 14.7775 16.4838C15.1413 16.4838 15.1883 16.4759 15.4347 16.3547C15.6147 16.2647 15.7516 16.1591 15.869 16.0221C15.9668 15.9087 16.7766 14.8445 17.6764 13.6513C18.7132 12.2703 19.3469 11.394 19.4174 11.2414C19.5856 10.8697 19.656 10.5372 19.656 10.1264C19.656 9.14836 19.1865 8.31115 18.3689 7.83386C17.8486 7.52479 17.0426 7.42307 16.3932 7.57956C15.8416 7.70867 15.2 8.08424 14.9105 8.44025L14.797 8.585L14.5349 8.3268C14.218 8.01773 13.8346 7.783 13.4082 7.63825C12.9779 7.49349 12.2541 7.46611 11.8355 7.57956ZM13.0092 8.79626C13.2947 8.88624 13.6625 9.13662 13.8307 9.35571C13.9833 9.55523 14.1241 9.87603 14.1711 10.1303C14.2611 10.6037 14.6601 10.8384 15.0552 10.6507C15.243 10.5607 15.3213 10.4316 15.4152 10.0599C15.4621 9.87995 15.5443 9.66086 15.599 9.56306C15.7477 9.30876 16.092 9.00361 16.3893 8.86277C16.6319 8.74932 16.6866 8.73758 17.0466 8.73758C17.3947 8.73758 17.4613 8.74932 17.6608 8.84712C17.9503 8.98796 18.2476 9.31267 18.3611 9.61C18.5136 10.013 18.4589 10.5137 18.2241 10.8697C18.1733 10.9441 17.4182 11.9573 16.5419 13.1193C15.4973 14.5042 14.9183 15.2436 14.8518 15.271C14.7892 15.2945 14.7305 15.2945 14.6875 15.2671C14.5858 15.2045 11.3426 10.8893 11.2369 10.6819C11.1156 10.4355 11.0883 10.0169 11.1743 9.72737C11.2956 9.30094 11.6555 8.91754 12.0546 8.78453C12.3128 8.69846 12.704 8.70237 13.0092 8.79626Z" fill="#979797"/>
</svg>
