<svg width="24" height="24" viewBox="0 0 24 24" fill="none" xmlns="http://www.w3.org/2000/svg">
<path d="M4.62891 2.08594C4.57422 2.16406 4.56641 2.41016 4.56641 4V5.82812H4.01172C3.55859 5.82812 3.42578 5.83984 3.31641 5.89844C2.89453 6.10938 2.89453 6.75781 3.31641 6.96875C3.42578 7.02734 3.55859 7.03906 4.01172 7.03906H4.56641V9.22656V11.4141H3.97266C3.31641 11.4141 3.23438 11.4375 3.07812 11.6719C2.97656 11.8242 2.97656 12.1758 3.07812 12.3281C3.23438 12.5625 3.31641 12.5859 3.97266 12.5859H4.56641V14.7734V16.9609H4.01172C3.55859 16.9609 3.42578 16.9727 3.31641 17.0312C2.89453 17.2422 2.89453 17.8906 3.31641 18.1016C3.42578 18.1602 3.55859 18.1719 4.01172 18.1719H4.56641V20C4.56641 21.5898 4.57422 21.8359 4.62891 21.9141L4.6875 22H6.03516H7.37891V12V2H6.03516H4.6875L4.62891 2.08594ZM5.81641 5.94141C6.03125 6.05469 6.14062 6.23828 6.11719 6.46484C6.09766 6.6875 6 6.83594 5.8125 6.92969C5.70703 6.98828 5.57812 7 5.14453 7H4.60547V6.43359V5.86719H5.14453C5.58984 5.86719 5.70312 5.87891 5.81641 5.94141ZM5.84375 11.5156C6.21484 11.793 6.21484 12.207 5.84375 12.4844C5.74609 12.5547 5.66797 12.5664 5.16797 12.5781L4.60547 12.5938V12V11.4062L5.16797 11.4219C5.66797 11.4336 5.74609 11.4453 5.84375 11.5156ZM5.8125 17.0703C6.02344 17.1758 6.10938 17.3242 6.10938 17.5664C6.10938 17.8086 6.02734 17.9453 5.81641 18.0586C5.70312 18.1211 5.59375 18.1328 5.14453 18.1328H4.60547V17.5664V17H5.14453C5.57812 17 5.70703 17.0117 5.8125 17.0703Z" fill="#1F1729"/>
<path d="M8.51196 12V22H14.5471C20.4729 22 20.5784 22 20.6213 21.9258C20.6487 21.8711 20.6604 18.7148 20.6604 12C20.6604 5.28516 20.6487 2.12891 20.6213 2.07422C20.5784 2 20.4729 2 14.5471 2H8.51196V12ZM13.2112 7.69141C13.6682 7.85156 13.9338 8.01562 14.301 8.36328L14.6057 8.65234L14.7463 8.48828C15.0393 8.14844 15.6057 7.79297 16.0901 7.64453C16.387 7.55469 17.0393 7.52344 17.3479 7.58203C18.1213 7.73438 18.7971 8.24609 19.1292 8.92578C19.3518 9.38281 19.3909 9.55469 19.3909 10.1055C19.3909 10.6953 19.3167 11 19.0706 11.4023C18.8479 11.7695 15.6682 15.9688 15.5081 16.1094C15.4338 16.1758 15.2737 16.2773 15.1526 16.332C14.9729 16.418 14.8831 16.4336 14.5862 16.4336C14.2854 16.4336 14.2034 16.418 14.012 16.3281C13.8909 16.2734 13.7151 16.1484 13.6213 16.0547C13.5276 15.9609 12.7073 14.8945 11.7971 13.6836C10.6721 12.1875 10.1018 11.3906 10.012 11.2031C9.55884 10.2461 9.74634 9.10938 10.4807 8.33203C10.762 8.03516 11.0354 7.85156 11.3948 7.71484C11.7815 7.57031 11.9221 7.55078 12.4182 7.5625C12.801 7.57031 12.9182 7.58984 13.2112 7.69141Z" fill="#1F1729"/>
<path d="M11.8668 8.74233C11.4488 8.87124 11.0933 9.23452 10.9527 9.67593C10.8512 10.0041 10.8824 10.4416 11.0348 10.7384C11.1285 10.9259 14.1285 14.9533 14.3824 15.2306C14.4605 15.3205 14.6558 15.3517 14.7457 15.2892C14.8394 15.2306 18.0973 10.8791 18.1676 10.715C18.4801 10.0236 18.1754 9.15249 17.5074 8.81264C17.2965 8.70718 17.2496 8.69936 16.8512 8.69936C16.4488 8.69936 16.4058 8.70718 16.1558 8.82436C15.6441 9.06655 15.2887 9.51968 15.1715 10.0744C15.0894 10.465 14.9527 10.6212 14.6519 10.6603C14.4605 10.6876 14.1988 10.5587 14.1207 10.4025C14.0855 10.34 14.0348 10.1681 13.9996 10.0158C13.9371 9.75014 13.7457 9.37514 13.5777 9.19546C13.4371 9.04311 13.109 8.8478 12.8551 8.76186C12.5738 8.66421 12.1402 8.65639 11.8668 8.74233Z" fill="#1F1729"/>
</svg>
