<svg width="32" height="33" viewBox="0 0 32 33" fill="none" xmlns="http://www.w3.org/2000/svg">
<path d="M5.98988 6.1877C5.68259 6.30228 5.33363 6.56791 5.14093 6.82832C4.84406 7.23457 4.80239 7.42727 4.80239 8.41164C4.80239 9.2033 4.79197 9.29184 4.71385 9.31788C4.66177 9.33351 4.44302 9.43246 4.22948 9.53663C3.74511 9.76579 3.21907 10.2658 2.98991 10.7189C2.64616 11.4064 2.66699 10.8491 2.66699 18.8751C2.66699 25.9584 2.6722 26.1615 2.77116 26.4792C3.0472 27.3854 3.72948 28.0729 4.64093 28.3854L4.98468 28.5H16.0002H27.0157L27.3595 28.3854C28.2709 28.0729 28.9532 27.3854 29.2292 26.4792C29.3282 26.1615 29.3334 25.9584 29.3334 18.849L29.3282 11.5522L29.2136 11.2085C28.8959 10.271 28.1928 9.59913 27.2553 9.31788C27.0105 9.24497 26.5939 9.23455 24.1251 9.23455H21.2814L21.0314 8.46372C20.896 8.04185 20.7085 7.55227 20.6252 7.37519C20.422 6.95332 19.9689 6.52103 19.5054 6.30228L19.1512 6.13562H16.0002H12.8492L12.495 6.30228C12.0315 6.52103 11.5784 6.95332 11.3752 7.37519C11.2919 7.55227 11.1044 8.04185 10.969 8.46372L10.719 9.23455H10.1044H9.49505L9.47943 8.30748C9.4638 7.45332 9.45339 7.36477 9.3336 7.12519C9.17214 6.79186 8.80756 6.42728 8.47423 6.26583C8.22944 6.14083 8.16173 6.13562 7.1982 6.1252C6.43258 6.11479 6.13571 6.13041 5.98988 6.1877ZM7.83361 7.76581C7.88049 7.81269 7.90653 8.04706 7.91694 8.53143L7.93778 9.23455H7.15133H6.36487V8.61476C6.36487 7.9481 6.40654 7.75019 6.55758 7.70852C6.7555 7.65123 7.7659 7.6981 7.83361 7.76581ZM18.8387 7.78144C18.9273 7.83352 19.0366 7.91685 19.0887 7.97414C19.1408 8.02623 19.3543 8.59393 19.5627 9.22413C19.7762 9.85954 19.9845 10.4272 20.0262 10.4845C20.2345 10.7814 20.0783 10.771 23.5522 10.797L26.7553 10.8231L26.9897 10.9481C27.3074 11.1147 27.4428 11.2449 27.6043 11.5522L27.7449 11.8127V18.8699V25.9271L27.5886 26.2084C27.4324 26.4896 27.2709 26.6406 26.9376 26.8177C26.7605 26.9115 26.4011 26.9167 16.0002 26.9167H5.24509L4.98468 26.7761C4.67739 26.6146 4.54718 26.4792 4.38052 26.1615L4.25552 25.9271V18.8699V11.8127L4.39614 11.5522C4.5576 11.2449 4.69301 11.1147 5.01072 10.9481L5.24509 10.8231L8.44819 10.797C11.9534 10.771 11.7867 10.7866 11.9846 10.4585C12.0367 10.37 12.2502 9.79184 12.4534 9.17205C12.7711 8.21373 12.8544 8.02102 12.9898 7.90644C13.0731 7.83352 13.2086 7.7606 13.2815 7.74498C13.3596 7.72935 13.4481 7.70852 13.4742 7.6981C13.5054 7.68769 14.6877 7.68248 16.1044 7.68769C18.3908 7.6981 18.6981 7.70852 18.8387 7.78144Z" fill="white"/>
<path d="M14.7554 11.4013C11.9013 11.8805 9.51586 14.2867 9.04712 17.1513C8.94816 17.7867 8.94816 18.9117 9.04712 19.5471C9.51586 22.4377 11.9117 24.8335 14.8023 25.3022C15.4377 25.4012 16.5627 25.4012 17.1981 25.3022C20.0887 24.8335 22.4845 22.4377 22.9532 19.5471C23.0522 18.9117 23.0522 17.7867 22.9532 17.1513C22.4845 14.2607 20.0887 11.8649 17.1981 11.3961C16.5887 11.2972 15.3544 11.3024 14.7554 11.4013ZM16.5991 12.9534C17.6408 13.0367 18.8127 13.568 19.6824 14.3596C20.3803 14.9951 21.0106 16.0471 21.271 16.995C21.3751 17.3752 21.3908 17.5627 21.3908 18.3492C21.3908 19.4117 21.3074 19.8127 20.9168 20.6356C20.3647 21.8023 19.4793 22.6929 18.3179 23.2502C15.9273 24.3908 13.1096 23.6408 11.5471 21.4481C11.2346 21.0158 10.8804 20.2502 10.7294 19.7033C10.6252 19.3179 10.6096 19.1408 10.6096 18.3492C10.6096 17.2919 10.6929 16.8909 11.0731 16.0784C11.3804 15.4325 11.6721 15.0159 12.1669 14.5159C13.0887 13.5992 14.271 13.0419 15.521 12.9378C15.771 12.9169 16.0314 12.9065 16.1043 12.9117C16.1773 12.9222 16.4012 12.9378 16.5991 12.9534Z" fill="white"/>
<path d="M15.0211 14.5417C14.8127 14.5937 14.4377 14.7396 14.1877 14.8594C13.8127 15.0469 13.6461 15.1719 13.2346 15.5833C12.8023 16.0156 12.7034 16.151 12.495 16.5781C12.1513 17.2968 12.0784 17.6666 12.1044 18.5156C12.1357 19.2916 12.2398 19.677 12.594 20.3229C12.8909 20.8541 13.62 21.552 14.1773 21.828C14.7867 22.1301 15.3127 22.2551 16.0002 22.2551C16.6877 22.2551 17.2085 22.1353 17.8231 21.828C18.1825 21.651 18.3596 21.5156 18.7606 21.1093C19.1668 20.7083 19.3023 20.5312 19.4793 20.1718C19.7866 19.552 19.9064 19.0364 19.9064 18.3281C19.9064 17.6198 19.7918 17.151 19.4793 16.526C19.3023 16.1666 19.1616 15.9896 18.7606 15.5885C18.3596 15.1823 18.1825 15.0469 17.8231 14.8698C17.1981 14.5573 16.6877 14.4427 15.9794 14.4479C15.6096 14.4479 15.2606 14.4844 15.0211 14.5417ZM16.9533 16.25C17.4221 16.4739 17.8752 16.9218 18.0991 17.3958C18.2554 17.7291 18.2658 17.7812 18.2658 18.3489C18.2658 18.9166 18.2554 18.9687 18.0991 19.302C17.8752 19.776 17.4273 20.2239 16.9533 20.4479C16.62 20.6041 16.5679 20.6145 16.0002 20.6145C15.4325 20.6145 15.3804 20.6041 15.0471 20.4479C14.5731 20.2239 14.1252 19.776 13.9013 19.302C13.745 18.9687 13.7346 18.9166 13.7346 18.3489C13.7346 17.7812 13.745 17.7291 13.9013 17.3958C14.094 16.9896 14.5523 16.5 14.9065 16.3177C15.3283 16.0989 15.5315 16.0573 16.0783 16.0729C16.5419 16.0833 16.6408 16.1041 16.9533 16.25Z" fill="white"/>
<path d="M6.18774 12.4586C5.94816 12.62 5.84399 12.818 5.84399 13.1409C5.84399 13.4638 5.94816 13.6617 6.18774 13.8232C6.32316 13.9117 6.44816 13.9221 7.40648 13.9221C8.58355 13.9221 8.65126 13.9065 8.87001 13.5784C9.00542 13.3752 9.00542 12.9065 8.87001 12.7034C8.65126 12.3753 8.58355 12.3596 7.40648 12.3596C6.44816 12.3596 6.32316 12.3701 6.18774 12.4586Z" fill="white"/>
<path d="M24.9375 12.4584C24.6979 12.6199 24.5938 12.8178 24.5938 13.1407C24.5938 13.4636 24.6979 13.6615 24.9375 13.823C25.1406 13.9584 25.6094 13.9584 25.8125 13.823C26.0521 13.6615 26.1562 13.4636 26.1562 13.1407C26.1562 12.8178 26.0521 12.6199 25.8125 12.4584C25.7083 12.3907 25.5677 12.3595 25.375 12.3595C25.1823 12.3595 25.0417 12.3907 24.9375 12.4584Z" fill="white"/>
</svg>
