<svg width="24" height="24" viewBox="0 0 24 24" fill="none" xmlns="http://www.w3.org/2000/svg">
<path d="M13.2424 0.089468C13.1674 0.136343 10.8846 2.40041 8.17524 5.11447C3.76899 9.53478 3.24399 10.0738 3.22055 10.2238C3.15492 10.6551 3.00961 10.4863 6.66586 14.1379C9.70336 17.1754 10.0737 17.527 10.233 17.5598C10.669 17.6348 10.4018 17.8785 15.6237 12.666C18.2768 10.0176 20.508 7.77228 20.5877 7.67384C20.7659 7.45353 20.8268 7.20978 20.7612 6.96134C20.719 6.79728 20.269 6.33322 17.4002 3.45509C15.5768 1.62697 14.0299 0.103531 13.9596 0.0660305C13.7768 -0.0277195 13.4112 -0.0183449 13.2424 0.089468Z" fill="#1F1729"/>
<path d="M15.2111 14.9535C11.8361 18.3238 11.583 18.5676 11.2877 18.7035C10.6783 18.9895 10.1252 18.9941 9.50176 18.7223C9.23926 18.6051 9.02832 18.4129 7.18145 16.5754L5.15176 14.5551L4.21895 15.4926C3.1877 16.5379 3.13145 16.627 3.23457 17.0301C3.28145 17.2035 3.64707 17.5879 6.6002 20.5457C8.42364 22.3738 9.97051 23.8973 10.0408 23.9348C10.2049 24.0191 10.5611 24.0191 10.7252 23.9348C10.7955 23.8973 13.0783 21.6332 15.8018 18.9051C20.2314 14.4707 20.7564 13.927 20.7799 13.777C20.8361 13.3832 20.7893 13.3176 19.7721 12.2957L18.8205 11.3441L15.2111 14.9535Z" fill="#1F1729"/>
</svg>
