<svg width="24" height="24" viewBox="0 0 24 24" fill="none" xmlns="http://www.w3.org/2000/svg">
<path d="M4.49235 4.26578C4.26188 4.35172 4.00016 4.55093 3.85563 4.74624C3.63298 5.05093 3.60173 5.19546 3.60173 5.93373C3.60173 6.52748 3.59392 6.59388 3.53532 6.61341C3.49626 6.62513 3.3322 6.69935 3.17205 6.77747C2.80877 6.94935 2.41424 7.32434 2.24237 7.66418C1.98456 8.1798 2.00018 7.76184 2.00018 13.7813C2.00018 19.0938 2.00409 19.2461 2.07831 19.4844C2.28534 20.1641 2.79705 20.6797 3.48064 20.9141L3.73845 21H12.0001H20.2617L20.5195 20.9141C21.2031 20.6797 21.7148 20.1641 21.9219 19.4844C21.9961 19.2461 22 19.0938 22 13.7618L21.9961 8.28918L21.9102 8.03137C21.6719 7.32825 21.1445 6.82435 20.4414 6.61341C20.2578 6.55873 19.9453 6.55091 18.0938 6.55091H15.961L15.7735 5.97279C15.6719 5.65639 15.5313 5.28921 15.4688 5.15639C15.3165 4.83999 14.9766 4.51578 14.629 4.35172L14.3633 4.22672H12.0001H9.63683L9.37121 4.35172C9.02356 4.51578 8.68371 4.83999 8.53137 5.15639C8.46887 5.28921 8.32825 5.65639 8.22669 5.97279L8.03919 6.55091H7.57826H7.12123L7.10951 5.85561C7.09779 5.21499 7.08998 5.14858 7.00014 4.9689C6.87904 4.7189 6.60561 4.44546 6.35561 4.32437C6.17202 4.23062 6.12124 4.22672 5.39859 4.2189C4.82438 4.21109 4.60172 4.22281 4.49235 4.26578ZM5.87515 5.44936C5.9103 5.48452 5.92983 5.6603 5.93765 6.02357L5.95327 6.55091H5.36343H4.77359V6.08607C4.77359 5.58608 4.80484 5.43764 4.91812 5.40639C5.06656 5.36342 5.82437 5.39858 5.87515 5.44936ZM14.129 5.46108C14.1954 5.50014 14.2774 5.56264 14.3165 5.60561C14.3555 5.64467 14.5157 6.07045 14.6719 6.5431C14.8321 7.01966 14.9883 7.44544 15.0196 7.4884C15.1758 7.71106 15.0587 7.70325 17.6641 7.72278L20.0664 7.74231L20.2422 7.83606C20.4805 7.96106 20.582 8.05871 20.7031 8.28918L20.8086 8.48449V13.7774V19.0703L20.6914 19.2813C20.5742 19.4922 20.4531 19.6055 20.2031 19.7383C20.0703 19.8086 19.8008 19.8125 12.0001 19.8125H3.93376L3.73845 19.707C3.50798 19.586 3.41033 19.4844 3.28533 19.2461L3.19158 19.0703V13.7774V8.48449L3.29705 8.28918C3.41814 8.05871 3.5197 7.96106 3.75798 7.83606L3.93376 7.74231L6.33608 7.72278C8.96496 7.70325 8.83996 7.71496 8.9884 7.46887C9.02746 7.40247 9.18762 6.96888 9.33996 6.50404C9.57824 5.78529 9.64074 5.64077 9.7423 5.55483C9.8048 5.50014 9.90636 5.44545 9.96105 5.43374C10.0196 5.42202 10.086 5.40639 10.1056 5.39858C10.129 5.39077 11.0157 5.38686 12.0782 5.39077C13.793 5.39858 14.0235 5.40639 14.129 5.46108Z" fill="#979797"/>
<path d="M11.0664 8.17588C8.92576 8.53525 7.13672 10.3399 6.78516 12.4883C6.71094 12.9649 6.71094 13.8086 6.78516 14.2852C7.13672 16.4531 8.93357 18.25 11.1015 18.6016C11.5781 18.6758 12.4218 18.6758 12.8984 18.6016C15.0663 18.25 16.8632 16.4531 17.2147 14.2852C17.289 13.8086 17.289 12.9649 17.2147 12.4883C16.8632 10.3204 15.0663 8.52353 12.8984 8.17197C12.4414 8.09775 11.5156 8.10166 11.0664 8.17588ZM12.4492 9.33993C13.2304 9.40243 14.1093 9.80086 14.7616 10.3946C15.2851 10.8712 15.7577 11.6602 15.953 12.3712C16.0312 12.6563 16.0429 12.7969 16.0429 13.3868C16.0429 14.1836 15.9804 14.4844 15.6874 15.1016C15.2734 15.9766 14.6093 16.6445 13.7382 17.0625C11.9453 17.918 9.832 17.3555 8.66014 15.711C8.42577 15.3867 8.16014 14.8125 8.04686 14.4024C7.96874 14.1133 7.95702 13.9805 7.95702 13.3868C7.95702 12.5938 8.01952 12.293 8.30467 11.6837C8.53514 11.1993 8.75389 10.8868 9.12498 10.5118C9.81638 9.8243 10.7031 9.40634 11.6406 9.32821C11.8281 9.31259 12.0234 9.30477 12.0781 9.30868C12.1328 9.31649 12.3007 9.32821 12.4492 9.33993Z" fill="#979797"/>
<path d="M11.2658 10.5313C11.1095 10.5704 10.8283 10.6797 10.6408 10.7696C10.3595 10.9102 10.2345 11.004 9.92596 11.3125C9.60174 11.6368 9.52752 11.7383 9.37128 12.0586C9.11347 12.5977 9.05878 12.875 9.07831 13.5117C9.10175 14.0938 9.17987 14.3828 9.44549 14.8672C9.66815 15.2656 10.215 15.7891 10.633 15.9961C11.09 16.2227 11.4845 16.3164 12.0002 16.3164C12.5158 16.3164 12.9064 16.2266 13.3673 15.9961C13.6369 15.8633 13.7697 15.7617 14.0705 15.457C14.3751 15.1563 14.4767 15.0234 14.6095 14.7539C14.84 14.2891 14.9298 13.9024 14.9298 13.3711C14.9298 12.8399 14.8439 12.4883 14.6095 12.0196C14.4767 11.75 14.3712 11.6172 14.0705 11.3165C13.7697 11.0118 13.6369 10.9102 13.3673 10.7774C12.8986 10.543 12.5158 10.4571 11.9845 10.461C11.7072 10.461 11.4455 10.4883 11.2658 10.5313ZM12.715 11.8125C13.0666 11.9805 13.4064 12.3164 13.5744 12.6719C13.6915 12.9219 13.6994 12.961 13.6994 13.3867C13.6994 13.8125 13.6915 13.8516 13.5744 14.1016C13.4064 14.457 13.0705 14.793 12.715 14.9609C12.465 15.0781 12.4259 15.0859 12.0002 15.0859C11.5744 15.0859 11.5353 15.0781 11.2853 14.9609C10.9299 14.793 10.5939 14.457 10.426 14.1016C10.3088 13.8516 10.301 13.8125 10.301 13.3867C10.301 12.961 10.3088 12.9219 10.426 12.6719C10.5705 12.3672 10.9142 12 11.1799 11.8633C11.4963 11.6993 11.6486 11.668 12.0588 11.6797C12.4064 11.6875 12.4806 11.7032 12.715 11.8125Z" fill="#979797"/>
<path d="M4.64087 8.969C4.46118 9.0901 4.38306 9.23853 4.38306 9.48072C4.38306 9.7229 4.46118 9.87134 4.64087 9.99243C4.74243 10.0588 4.83618 10.0667 5.55492 10.0667C6.43773 10.0667 6.48851 10.0549 6.65257 9.80884C6.75413 9.6565 6.75413 9.30494 6.65257 9.1526C6.48851 8.9065 6.43773 8.89479 5.55492 8.89479C4.83618 8.89479 4.74243 8.9026 4.64087 8.969Z" fill="#979797"/>
<path d="M18.7031 8.96876C18.5234 9.08985 18.4453 9.23829 18.4453 9.48047C18.4453 9.72266 18.5234 9.8711 18.7031 9.99219C18.8555 10.0937 19.207 10.0937 19.3594 9.99219C19.5391 9.8711 19.6172 9.72266 19.6172 9.48047C19.6172 9.23829 19.5391 9.08985 19.3594 8.96876C19.2812 8.91798 19.1758 8.89454 19.0312 8.89454C18.8867 8.89454 18.7812 8.91798 18.7031 8.96876Z" fill="#979797"/>
</svg>
