<svg width="24" height="24" viewBox="0 0 24 24" fill="none" xmlns="http://www.w3.org/2000/svg">
<path d="M11.5417 2.02384C10.8579 2.13325 10.2639 2.33645 9.80672 2.60998C9.09944 3.03201 8.45468 3.67286 8.03266 4.36842C7.81383 4.72792 7.61845 5.2281 7.50903 5.6892C7.39571 6.17765 7.36836 7.15456 7.45433 7.64692C7.70442 9.08493 8.568 10.3041 9.86924 11.0505C11.1509 11.7851 12.8586 11.8476 14.2614 11.2146C14.7303 11.0036 15.1719 10.6792 15.6291 10.226C16.6529 9.20216 17.1023 8.03768 17.0398 6.59968C16.9811 5.32188 16.5474 4.31762 15.6565 3.41495C14.9453 2.69204 14.0582 2.22703 13.0774 2.0551C12.7687 2.00039 11.7996 1.98085 11.5417 2.02384ZM13.2142 3.32117C13.8003 3.49311 14.3318 3.81744 14.7968 4.29026C15.2618 4.76309 15.5197 5.19684 15.7112 5.81424C15.8088 6.13076 15.8167 6.20891 15.8167 6.82241C15.8128 7.42809 15.8049 7.51797 15.7112 7.83058C15.5314 8.42063 15.2696 8.85829 14.8085 9.33502C14.1207 10.0501 13.2064 10.437 12.2295 10.437C11.2604 10.4331 10.4632 10.1165 9.77155 9.46006C9.2323 8.94816 8.90406 8.42845 8.7204 7.7915C8.64225 7.52578 8.63052 7.40074 8.63443 6.80287C8.63443 6.16984 8.64225 6.09168 8.74385 5.76735C9.00957 4.90376 9.62306 4.14177 10.4476 3.65332C10.7524 3.47357 11.0494 3.36025 11.4675 3.26646C11.8465 3.1805 12.839 3.21176 13.2142 3.32117Z" fill="#979797"/>
<path d="M7.86856 11.6715C6.96589 11.8044 6.28206 12.1404 5.70764 12.7305C4.6135 13.8559 4 15.8527 4 18.2949C4 19.3265 4.07425 19.6939 4.40249 20.3425C4.52362 20.5809 4.64867 20.7411 4.91829 21.0107C5.30124 21.3976 5.63339 21.6164 6.0984 21.7805C6.74316 22.015 6.52824 22.0072 12.503 21.9955L17.9698 21.9837L18.3019 21.8821C18.724 21.7493 18.9467 21.6516 19.228 21.4718C19.8806 21.0576 20.3613 20.4011 20.5684 19.6587C20.6934 19.1937 20.7286 18.6388 20.6856 17.783C20.4902 13.9535 19.0366 11.7965 16.563 11.6598C16.0316 11.6324 16.0238 11.6324 15.1133 12.2186C14.4099 12.6679 13.9215 12.8907 13.2728 13.0587C12.7844 13.1877 11.909 13.1877 11.4245 13.0626C10.7329 12.8829 10.2678 12.6679 9.56447 12.2107C9.30657 12.0427 8.99005 11.8473 8.85328 11.777C8.62664 11.6598 8.57584 11.648 8.28667 11.652C8.11083 11.6559 7.92326 11.6637 7.86856 11.6715ZM8.90408 13.2385C9.60355 13.6878 10.1233 13.9418 10.7289 14.1255C11.909 14.4811 13.0266 14.4576 14.2028 14.0473C14.7382 13.8637 15.1211 13.6644 15.8128 13.2189L16.3911 12.8516L16.6295 12.875C18.0714 13.0392 18.9467 14.2193 19.3375 16.513C19.4547 17.193 19.525 18.463 19.4742 18.9202C19.3687 19.8658 18.7787 20.5223 17.8408 20.7411C17.5595 20.8075 17.2195 20.8114 12.3233 20.8114C6.52433 20.8114 6.89165 20.8271 6.30941 20.5496C5.98899 20.3972 5.5865 20.0026 5.43801 19.6978C5.25044 19.307 5.21137 19.0647 5.21137 18.3067C5.21527 16.2473 5.69591 14.5514 6.54778 13.6214C6.87602 13.2619 7.28632 13.0313 7.80994 12.918C8.2515 12.8203 8.26323 12.8242 8.90408 13.2385Z" fill="#979797"/>
</svg>
